<svg xmlns="http://www.w3.org/2000/svg" xmlns:xlink="http://www.w3.org/1999/xlink" width="105" zoomAndPan="magnify" viewBox="0 0 78.75 30.000001" height="40" preserveAspectRatio="xMidYMid meet" version="1.0"><defs><g/><clipPath id="39e71ca198"><path d="M 1.148438 0 L 77.359375 0 L 77.359375 29.03125 L 1.148438 29.03125 Z M 1.148438 0 " clip-rule="nonzero"/></clipPath><clipPath id="5b30e4e327"><path d="M 1.148438 0 L 77.359375 0 L 77.359375 24.675781 L 1.148438 24.675781 Z M 1.148438 0 " clip-rule="nonzero"/></clipPath></defs><g clip-path="url(#39e71ca198)"><path fill="#ffffff" d="M 1.148438 0 L 77.359375 0 L 77.359375 29.03125 L 1.148438 29.03125 Z M 1.148438 0 " fill-opacity="1" fill-rule="nonzero"/><path fill="#ffffff" d="M 1.148438 0 L 77.359375 0 L 77.359375 29.03125 L 1.148438 29.03125 Z M 1.148438 0 " fill-opacity="1" fill-rule="nonzero"/></g><g fill="#ffffff" fill-opacity="1"><g transform="translate(12.319336, 27.809155)"><g><path d="M 1.003906 -0.640625 L 1.003906 -2.898438 L 0.265625 -2.898438 L 0.265625 0 L 1.925781 0 L 1.925781 -0.640625 Z M 1.003906 -0.640625 "/></g></g></g><g fill="#ffffff" fill-opacity="1"><g transform="translate(14.42728, 27.809155)"><g><path d="M 1.492188 0.0390625 C 2.1875 0.0390625 2.734375 -0.382812 2.734375 -0.921875 L 2.734375 -2.898438 L 1.992188 -2.898438 L 1.992188 -1.0625 C 1.992188 -0.804688 1.773438 -0.601562 1.492188 -0.601562 C 1.210938 -0.601562 0.988281 -0.804688 0.988281 -1.0625 L 0.988281 -2.898438 L 0.25 -2.898438 L 0.25 -0.921875 C 0.25 -0.382812 0.796875 0.0390625 1.492188 0.0390625 Z M 1.492188 0.0390625 "/></g></g></g><g fill="#ffffff" fill-opacity="1"><g transform="translate(17.592572, 27.809155)"><g><path d="M 1.003906 -0.640625 L 1.003906 -2.898438 L 0.265625 -2.898438 L 0.265625 0 L 1.925781 0 L 1.925781 -0.640625 Z M 1.003906 -0.640625 "/></g></g></g><g fill="#ffffff" fill-opacity="1"><g transform="translate(19.700516, 27.809155)"><g><path d="M 0.289062 0 L 1.027344 0 L 1.027344 -2.898438 L 0.289062 -2.898438 Z M 0.289062 0 "/></g></g></g><g fill="#ffffff" fill-opacity="1"><g transform="translate(21.195291, 27.809155)"><g/></g></g><g fill="#ffffff" fill-opacity="1"><g transform="translate(22.535566, 27.809155)"><g><path d="M 1.652344 0.0390625 C 2.226562 0.0390625 2.726562 -0.289062 2.972656 -0.773438 L 2.335938 -1.097656 C 2.210938 -0.84375 1.960938 -0.6875 1.652344 -0.6875 C 1.210938 -0.6875 0.882812 -1.007812 0.882812 -1.449219 C 0.882812 -1.886719 1.210938 -2.210938 1.652344 -2.210938 C 1.960938 -2.210938 2.210938 -2.050781 2.335938 -1.800781 L 2.972656 -2.125 C 2.726562 -2.605469 2.226562 -2.933594 1.652344 -2.933594 C 0.824219 -2.933594 0.164062 -2.269531 0.164062 -1.449219 C 0.164062 -0.628906 0.824219 0.0390625 1.652344 0.0390625 Z M 1.652344 0.0390625 "/></g></g></g><g fill="#ffffff" fill-opacity="1"><g transform="translate(25.807076, 27.809155)"><g><path d="M 1.652344 0.0390625 C 2.472656 0.0390625 3.136719 -0.628906 3.136719 -1.449219 C 3.136719 -2.269531 2.472656 -2.933594 1.652344 -2.933594 C 0.824219 -2.933594 0.164062 -2.269531 0.164062 -1.449219 C 0.164062 -0.628906 0.824219 0.0390625 1.652344 0.0390625 Z M 1.652344 -0.6875 C 1.210938 -0.6875 0.882812 -1.007812 0.882812 -1.449219 C 0.882812 -1.886719 1.210938 -2.210938 1.652344 -2.210938 C 2.085938 -2.210938 2.414062 -1.886719 2.414062 -1.449219 C 2.414062 -1.007812 2.085938 -0.6875 1.652344 -0.6875 Z M 1.652344 -0.6875 "/></g></g></g><g fill="#ffffff" fill-opacity="1"><g transform="translate(29.286194, 27.809155)"><g><path d="M 2.347656 -2.898438 L 2.347656 -1.125 L 1.039062 -2.898438 L 0.265625 -2.898438 L 0.265625 0 L 1.003906 0 L 1.003906 -1.777344 L 2.308594 0 L 3.085938 0 L 3.085938 -2.898438 Z M 2.347656 -2.898438 "/></g></g></g><g fill="#ffffff" fill-opacity="1"><g transform="translate(32.818423, 27.809155)"><g><path d="M 1.210938 0.0390625 C 1.765625 0.0390625 2.246094 -0.285156 2.246094 -0.839844 C 2.246094 -1.941406 0.933594 -1.664062 0.933594 -2.105469 C 0.933594 -2.230469 1.027344 -2.289062 1.144531 -2.289062 C 1.289062 -2.289062 1.449219 -2.203125 1.601562 -2.039062 L 2.085938 -2.503906 C 1.859375 -2.769531 1.515625 -2.933594 1.152344 -2.933594 C 0.695312 -2.933594 0.1875 -2.667969 0.1875 -2.050781 C 0.1875 -1.046875 1.507812 -1.289062 1.507812 -0.851562 C 1.507812 -0.734375 1.410156 -0.652344 1.222656 -0.652344 C 0.96875 -0.652344 0.769531 -0.785156 0.667969 -1.003906 L 0.0625 -0.628906 C 0.257812 -0.261719 0.679688 0.0390625 1.210938 0.0390625 Z M 1.210938 0.0390625 "/></g></g></g><g fill="#ffffff" fill-opacity="1"><g transform="translate(35.351237, 27.809155)"><g><path d="M 2.109375 -2.898438 L -0.0429688 -2.898438 L -0.0429688 -2.253906 L 0.667969 -2.253906 L 0.667969 0 L 1.398438 0 L 1.398438 -2.253906 L 2.109375 -2.253906 Z M 2.109375 -2.898438 "/></g></g></g><g fill="#ffffff" fill-opacity="1"><g transform="translate(37.599194, 27.809155)"><g><path d="M 1.878906 -1.148438 C 2.210938 -1.265625 2.441406 -1.589844 2.441406 -1.984375 C 2.441406 -2.488281 2.070312 -2.898438 1.554688 -2.898438 L 0.265625 -2.898438 L 0.265625 0 L 1.003906 0 L 1.003906 -1.0625 L 1.171875 -1.0625 L 1.847656 0 L 2.679688 0 Z M 1.433594 -1.65625 L 1.003906 -1.65625 L 1.003906 -2.253906 L 1.433594 -2.253906 C 1.609375 -2.253906 1.734375 -2.128906 1.734375 -1.957031 C 1.734375 -1.78125 1.609375 -1.65625 1.433594 -1.65625 Z M 1.433594 -1.65625 "/></g></g></g><g fill="#ffffff" fill-opacity="1"><g transform="translate(40.416867, 27.809155)"><g><path d="M 1.492188 0.0390625 C 2.1875 0.0390625 2.734375 -0.382812 2.734375 -0.921875 L 2.734375 -2.898438 L 1.992188 -2.898438 L 1.992188 -1.0625 C 1.992188 -0.804688 1.773438 -0.601562 1.492188 -0.601562 C 1.210938 -0.601562 0.988281 -0.804688 0.988281 -1.0625 L 0.988281 -2.898438 L 0.25 -2.898438 L 0.25 -0.921875 C 0.25 -0.382812 0.796875 0.0390625 1.492188 0.0390625 Z M 1.492188 0.0390625 "/></g></g></g><g fill="#ffffff" fill-opacity="1"><g transform="translate(43.582161, 27.809155)"><g><path d="M 1.652344 0.0390625 C 2.226562 0.0390625 2.726562 -0.289062 2.972656 -0.773438 L 2.335938 -1.097656 C 2.210938 -0.84375 1.960938 -0.6875 1.652344 -0.6875 C 1.210938 -0.6875 0.882812 -1.007812 0.882812 -1.449219 C 0.882812 -1.886719 1.210938 -2.210938 1.652344 -2.210938 C 1.960938 -2.210938 2.210938 -2.050781 2.335938 -1.800781 L 2.972656 -2.125 C 2.726562 -2.605469 2.226562 -2.933594 1.652344 -2.933594 C 0.824219 -2.933594 0.164062 -2.269531 0.164062 -1.449219 C 0.164062 -0.628906 0.824219 0.0390625 1.652344 0.0390625 Z M 1.652344 0.0390625 "/></g></g></g><g fill="#ffffff" fill-opacity="1"><g transform="translate(46.853673, 27.809155)"><g><path d="M 2.109375 -2.898438 L -0.0429688 -2.898438 L -0.0429688 -2.253906 L 0.667969 -2.253906 L 0.667969 0 L 1.398438 0 L 1.398438 -2.253906 L 2.109375 -2.253906 Z M 2.109375 -2.898438 "/></g></g></g><g fill="#ffffff" fill-opacity="1"><g transform="translate(49.101629, 27.809155)"><g><path d="M 0.289062 0 L 1.027344 0 L 1.027344 -2.898438 L 0.289062 -2.898438 Z M 0.289062 0 "/></g></g></g><g fill="#ffffff" fill-opacity="1"><g transform="translate(50.596406, 27.809155)"><g><path d="M 1.652344 0.0390625 C 2.472656 0.0390625 3.136719 -0.628906 3.136719 -1.449219 C 3.136719 -2.269531 2.472656 -2.933594 1.652344 -2.933594 C 0.824219 -2.933594 0.164062 -2.269531 0.164062 -1.449219 C 0.164062 -0.628906 0.824219 0.0390625 1.652344 0.0390625 Z M 1.652344 -0.6875 C 1.210938 -0.6875 0.882812 -1.007812 0.882812 -1.449219 C 0.882812 -1.886719 1.210938 -2.210938 1.652344 -2.210938 C 2.085938 -2.210938 2.414062 -1.886719 2.414062 -1.449219 C 2.414062 -1.007812 2.085938 -0.6875 1.652344 -0.6875 Z M 1.652344 -0.6875 "/></g></g></g><g fill="#ffffff" fill-opacity="1"><g transform="translate(54.075525, 27.809155)"><g><path d="M 2.347656 -2.898438 L 2.347656 -1.125 L 1.039062 -2.898438 L 0.265625 -2.898438 L 0.265625 0 L 1.003906 0 L 1.003906 -1.777344 L 2.308594 0 L 3.085938 0 L 3.085938 -2.898438 Z M 2.347656 -2.898438 "/></g></g></g><g fill="#ffffff" fill-opacity="1"><g transform="translate(57.607753, 27.809155)"><g/></g></g><g fill="#ffffff" fill-opacity="1"><g transform="translate(58.948026, 27.809155)"><g><path d="M 1.003906 -0.640625 L 1.003906 -2.898438 L 0.265625 -2.898438 L 0.265625 0 L 1.925781 0 L 1.925781 -0.640625 Z M 1.003906 -0.640625 "/></g></g></g><g fill="#ffffff" fill-opacity="1"><g transform="translate(61.055968, 27.809155)"><g><path d="M 2.109375 -2.898438 L -0.0429688 -2.898438 L -0.0429688 -2.253906 L 0.667969 -2.253906 L 0.667969 0 L 1.398438 0 L 1.398438 -2.253906 L 2.109375 -2.253906 Z M 2.109375 -2.898438 "/></g></g></g><g fill="#ffffff" fill-opacity="1"><g transform="translate(63.303922, 27.809155)"><g><path d="M 0.265625 0 L 1.269531 0 C 2.066406 0 2.71875 -0.648438 2.71875 -1.449219 C 2.71875 -2.25 2.066406 -2.898438 1.269531 -2.898438 L 0.265625 -2.898438 Z M 1.003906 -0.640625 L 1.003906 -2.253906 L 1.269531 -2.253906 C 1.671875 -2.253906 1.984375 -1.902344 1.984375 -1.449219 C 1.984375 -0.996094 1.671875 -0.640625 1.269531 -0.640625 Z M 1.003906 -0.640625 "/></g></g></g><g clip-path="url(#5b30e4e327)"><path fill="#ea580b" d="M 25.957031 8.925781 L 24.390625 9.160156 L 24.390625 10.503906 L 25.957031 10.308594 Z M 22.765625 12.1875 L 24.128906 12.113281 L 24.128906 10.777344 L 22.765625 10.945312 Z M 24.128906 9.195312 L 22.765625 9.398438 L 22.765625 10.699219 L 24.128906 10.53125 Z M 24.390625 12.097656 L 25.957031 12.015625 L 25.957031 10.554688 L 24.390625 10.746094 Z M 45.800781 10.734375 L 47.503906 10.640625 L 47.503906 8.972656 L 45.800781 9.183594 Z M 47.832031 10.625 L 49.789062 10.519531 L 49.789062 8.695312 L 47.832031 8.933594 Z M 49.789062 6.660156 L 47.832031 6.949219 L 47.832031 8.628906 L 49.789062 8.386719 Z M 47.503906 6.996094 L 45.800781 7.25 L 45.800781 8.875 L 47.503906 8.667969 Z M 45.199219 21.753906 C 46.621094 21.589844 48.050781 21.449219 49.476562 21.328125 L 49.476562 14.015625 L 45.199219 14.558594 Z M 26.566406 20.890625 L 26.578125 20.910156 L 26.59375 20.902344 L 26.582031 20.882812 L 26.601562 20.871094 L 26.59375 20.855469 L 26.574219 20.867188 L 26.5625 20.847656 L 26.550781 20.855469 L 26.5625 20.875 L 26.539062 20.886719 L 26.546875 20.898438 Z M 11.082031 20.867188 L 10.742188 19.804688 L 10.671875 19.828125 L 10.769531 20.160156 L 10.652344 19.835938 L 10.550781 19.867188 L 10.757812 20.546875 L 10.519531 19.875 L 10.457031 19.894531 L 10.589844 20.328125 L 10.433594 19.902344 L 10.167969 19.988281 L 10.261719 20.289062 L 10.152344 19.992188 L 10.089844 20.011719 L 10.21875 20.445312 L 10.066406 20.019531 L 9.75 20.121094 L 9.871094 20.519531 L 9.730469 20.125 L 9.660156 20.148438 L 9.792969 20.582031 L 9.636719 20.15625 L 9.390625 20.234375 L 9.53125 20.695312 L 9.367188 20.242188 L 9.226562 20.285156 L 9.332031 20.640625 L 9.203125 20.292969 L 9.085938 20.332031 L 9.421875 21.394531 Z M 14.808594 17.6875 L 14.347656 16.542969 L 10.566406 18.066406 L 11.027344 19.210938 Z M 14.824219 17.113281 L 15.128906 17.867188 L 13.929688 19.714844 C 13.910156 19.742188 13.90625 19.773438 13.921875 19.804688 L 14.03125 20.082031 L 14.214844 20.007812 L 14.121094 19.777344 L 15.324219 17.933594 C 15.339844 17.90625 15.34375 17.871094 15.332031 17.84375 L 14.972656 16.945312 C 14.953125 16.894531 14.894531 16.871094 14.84375 16.894531 L 14.582031 16.996094 L 14.65625 17.179688 Z M 9.667969 22.167969 L 11.328125 21.640625 L 11.09375 20.910156 L 9.433594 21.433594 Z M 36.886719 16.019531 C 37.777344 15.746094 38.523438 16.972656 38.523438 16.972656 L 38.71875 16.769531 C 38.71875 16.769531 37.160156 14.285156 35.960938 14.589844 C 34.929688 14.851562 34.375 15.078125 34.375 15.078125 L 34.160156 15.144531 C 34.074219 15.398438 33.855469 15.617188 33.550781 15.710938 C 33.25 15.804688 32.941406 15.746094 32.730469 15.585938 L 32 15.808594 L 32.550781 17.585938 L 33.207031 17.382812 C 33.207031 17.382812 33.410156 17.121094 33.929688 16.933594 C 34.386719 16.769531 35 17.011719 35.121094 17.417969 C 35.125 17.425781 35.128906 17.4375 35.132812 17.449219 L 36.496094 17.027344 C 36.449219 16.820312 36.34375 16.1875 36.886719 16.019531 Z M 42.234375 18.933594 C 42.203125 18.933594 42.171875 18.941406 42.144531 18.953125 L 41.867188 19.011719 C 41.808594 18.964844 41.730469 18.9375 41.640625 18.9375 C 41.550781 18.9375 41.472656 18.96875 41.414062 19.011719 L 41.136719 18.953125 C 41.109375 18.941406 41.078125 18.933594 41.042969 18.933594 L 41.039062 18.929688 L 41.039062 18.933594 C 41.03125 18.929688 41.027344 18.929688 41.019531 18.929688 C 40.855469 18.929688 40.722656 19.046875 40.722656 19.1875 C 40.722656 19.332031 40.855469 19.445312 41.019531 19.445312 C 41.050781 19.445312 41.078125 19.441406 41.105469 19.433594 L 41.425781 19.390625 C 41.445312 19.402344 41.464844 19.414062 41.484375 19.421875 L 41.484375 19.722656 L 41.363281 19.722656 C 41.339844 19.722656 41.320312 19.742188 41.320312 19.765625 C 41.320312 19.792969 41.339844 19.8125 41.363281 19.8125 L 41.917969 19.8125 C 41.941406 19.8125 41.960938 19.792969 41.960938 19.765625 C 41.960938 19.742188 41.941406 19.722656 41.917969 19.722656 L 41.792969 19.722656 L 41.792969 19.421875 C 41.816406 19.414062 41.835938 19.402344 41.851562 19.390625 L 42.171875 19.433594 C 42.203125 19.441406 42.230469 19.445312 42.261719 19.445312 C 42.425781 19.445312 42.558594 19.332031 42.558594 19.1875 C 42.558594 19.046875 42.425781 18.929688 42.261719 18.929688 C 42.253906 18.929688 42.246094 18.929688 42.242188 18.933594 L 42.242188 18.929688 Z M 41.230469 19.847656 C 41.1875 19.847656 41.152344 19.882812 41.152344 19.925781 C 41.152344 19.96875 41.1875 20.003906 41.230469 20.003906 L 42.03125 20.003906 C 42.074219 20.003906 42.109375 19.96875 42.109375 19.925781 C 42.109375 19.882812 42.074219 19.847656 42.03125 19.847656 Z M 21.058594 21.1875 C 21.039062 21.332031 20.960938 21.429688 21.054688 21.585938 C 21.234375 21.882812 21.375 21.828125 21.722656 21.835938 C 21.785156 21.835938 21.820312 21.910156 21.859375 21.957031 C 21.90625 22.015625 22.085938 21.917969 22.054688 21.867188 C 21.96875 21.757812 21.863281 21.664062 21.738281 21.652344 C 21.609375 21.640625 21.441406 21.71875 21.335938 21.644531 C 21.15625 21.519531 21.25 21.285156 21.058594 21.1875 Z M 77.351562 24.445312 C 76.371094 24.335938 75.308594 24.226562 74.171875 24.125 L 73.671875 13.121094 L 66.332031 5.53125 L 63.800781 4.789062 L 63.800781 3.128906 L 61.621094 1.78125 L 60.355469 2.121094 L 60.355469 3.777344 L 47.492188 0 L 43.75 4.808594 L 36.261719 5.757812 L 29.933594 11.53125 L 34.890625 5.808594 L 25.667969 1.996094 L 17.945312 13.675781 L 25.742188 4.082031 L 29.179688 13.027344 L 29.351562 16.710938 C 29.371094 16.503906 29.566406 14.476562 29.667969 13.417969 L 40.105469 12.792969 L 40.359375 18.226562 C 40.398438 17.863281 40.792969 13.800781 40.910156 12.605469 L 47.875 2.453125 L 55.339844 12.695312 L 55.339844 23.113281 C 51.847656 23.011719 48.15625 22.945312 44.324219 22.910156 L 44.324219 21.3125 C 44.324219 20.898438 43.988281 20.558594 43.570312 20.558594 L 43.273438 20.558594 L 43.273438 20.375 L 42.957031 20.375 L 42.867188 20.5 L 42.867188 20.507812 L 42.863281 20.507812 L 42.863281 20.558594 L 42.203125 20.558594 C 42.164062 20.492188 42.113281 20.429688 42.050781 20.382812 L 42.050781 20.046875 L 41.242188 20.046875 L 41.242188 20.382812 C 41.179688 20.429688 41.128906 20.492188 41.089844 20.558594 L 40.710938 20.558594 C 40.296875 20.558594 39.957031 20.898438 39.957031 21.3125 L 39.957031 21.644531 L 39.9375 21.644531 C 39.890625 21.644531 39.851562 21.683594 39.851562 21.730469 C 39.851562 21.777344 39.890625 21.8125 39.9375 21.8125 L 40.46875 21.8125 C 40.515625 21.8125 40.554688 21.777344 40.554688 21.730469 C 40.554688 21.683594 40.515625 21.644531 40.472656 21.644531 L 40.472656 21.3125 C 40.472656 21.179688 40.578125 21.070312 40.710938 21.070312 L 41.09375 21.070312 C 41.195312 21.253906 41.40625 21.382812 41.644531 21.382812 C 41.886719 21.382812 42.097656 21.253906 42.199219 21.070312 L 42.863281 21.070312 L 42.863281 21.132812 L 42.957031 21.273438 L 42.960938 21.265625 L 43.273438 21.265625 L 43.273438 21.074219 L 43.570312 21.074219 C 43.703125 21.074219 43.8125 21.179688 43.8125 21.3125 L 43.8125 22.910156 C 42.3125 22.898438 40.792969 22.890625 39.253906 22.890625 C 39.015625 22.890625 38.773438 22.890625 38.53125 22.890625 L 36.523438 17.121094 L 35.160156 17.539062 L 35.191406 17.648438 L 36.601562 22.898438 C 35.296875 22.902344 34.011719 22.914062 32.742188 22.925781 C 32.714844 22.710938 32.652344 22.476562 32.550781 22.273438 C 32.503906 22.179688 32.359375 22.132812 32.273438 22.074219 C 32.253906 22.03125 32.242188 21.992188 32.242188 21.957031 C 32.238281 21.339844 32.074219 20.808594 31.914062 20.3125 C 31.847656 20.101562 32.039062 20.015625 32.308594 20.007812 C 32.628906 20 32.894531 19.929688 33.144531 19.714844 C 33.210938 19.671875 33.226562 19.667969 33.191406 19.601562 C 33.222656 19.585938 33.253906 19.515625 33.25 19.484375 C 33.441406 19.363281 33.328125 18.785156 33.234375 18.691406 C 33.214844 18.667969 33.199219 18.695312 33.195312 18.664062 C 33.191406 18.625 33.171875 18.589844 33.136719 18.566406 C 33.191406 18.546875 33.125 18.46875 33.066406 18.457031 C 32.757812 18.40625 32.441406 18.414062 32.128906 18.394531 C 32.046875 18.371094 31.882812 18.304688 31.804688 18.34375 C 31.691406 18.402344 31.585938 18.441406 31.480469 18.464844 C 31.476562 18.445312 31.394531 18.441406 31.285156 18.449219 C 31.273438 18.433594 31.261719 18.421875 31.238281 18.421875 L 31.175781 18.429688 C 31.164062 18.429688 31.15625 18.445312 31.152344 18.460938 C 31.035156 18.476562 30.949219 18.5 30.953125 18.515625 C 30.953125 18.519531 30.953125 18.519531 30.953125 18.519531 C 30.847656 18.519531 30.738281 18.519531 30.625 18.523438 C 30.398438 18.4375 30.320312 18.511719 30.152344 18.605469 L 30.152344 18.601562 L 29.914062 18.660156 L 29.664062 18.714844 C 29.667969 18.835938 29.671875 18.957031 29.679688 19.078125 L 29.65625 19.078125 C 29.648438 18.980469 29.632812 18.882812 29.617188 18.785156 L 29.003906 18.820312 C 28.921875 18.824219 28.84375 18.84375 28.765625 18.878906 L 28.421875 19.03125 L 28.429688 19.128906 L 28.375 19.136719 C 28.375 19.164062 28.371094 19.191406 28.371094 19.21875 L 28.152344 19.277344 L 28.160156 19.335938 L 27.691406 19.367188 L 27.632812 19.390625 L 27.695312 19.410156 L 28.164062 19.378906 L 28.164062 19.421875 L 28.394531 19.488281 C 28.394531 19.5 28.398438 19.511719 28.398438 19.527344 L 28.460938 19.53125 L 28.46875 19.625 L 28.820312 19.738281 C 28.898438 19.765625 28.988281 19.773438 29.070312 19.769531 L 29.683594 19.734375 C 29.683594 19.632812 29.683594 19.53125 29.679688 19.429688 L 29.703125 19.425781 C 29.710938 19.546875 29.71875 19.664062 29.730469 19.78125 L 30.007812 19.804688 L 30.234375 19.84375 L 30.230469 19.828125 C 30.347656 19.855469 30.421875 19.863281 30.511719 19.953125 C 30.621094 19.953125 30.699219 19.953125 30.753906 19.964844 C 30.773438 19.96875 30.789062 19.980469 30.804688 19.992188 L 30.535156 19.980469 C 30.492188 19.980469 30.484375 19.988281 30.5 20.03125 C 30.566406 20.195312 30.566406 20.34375 30.507812 20.488281 C 30.496094 20.511719 30.519531 20.523438 30.542969 20.527344 L 30.765625 20.535156 C 30.722656 20.550781 30.664062 20.574219 30.703125 20.613281 C 30.742188 20.65625 30.941406 20.621094 30.953125 20.730469 C 31 21.125 31.277344 21.46875 31.304688 21.859375 C 31.296875 21.980469 31.261719 22.0625 31.199219 22.125 C 31.152344 22.175781 31.101562 22.203125 31.039062 22.214844 L 31.042969 22.289062 C 30.835938 22.328125 30.636719 22.398438 30.492188 22.523438 C 30.453125 22.554688 30.464844 22.621094 30.453125 22.667969 L 30.226562 22.960938 C 29.421875 22.972656 28.628906 22.984375 27.84375 23 L 26.609375 20.683594 L 25.753906 21.382812 L 25.25 23.058594 C 25.21875 23.058594 25.1875 23.0625 25.15625 23.0625 L 25.679688 21.332031 L 26.570312 20.605469 L 22.613281 13.175781 L 21.910156 13.550781 L 21.839844 13.628906 L 21.957031 13.652344 L 21.957031 13.660156 L 21.878906 13.75 L 21.992188 13.773438 L 21.996094 13.78125 L 21.914062 13.867188 L 22.03125 13.894531 L 22.03125 13.902344 L 21.953125 13.988281 L 22.066406 14.015625 L 22.070312 14.023438 L 21.992188 14.109375 L 22.105469 14.132812 L 22.109375 14.140625 L 22.027344 14.230469 L 22.144531 14.253906 L 22.144531 14.261719 L 22.066406 14.347656 L 22.179688 14.375 L 22.183594 14.382812 L 22.105469 14.46875 L 22.21875 14.496094 L 22.222656 14.503906 L 22.140625 14.589844 L 22.257812 14.613281 L 22.257812 14.621094 L 22.179688 14.710938 L 22.292969 14.734375 L 22.296875 14.742188 L 22.21875 14.828125 L 22.332031 14.855469 L 22.335938 14.863281 L 22.253906 14.949219 L 22.371094 14.976562 L 22.371094 14.984375 L 22.292969 15.070312 L 22.40625 15.09375 L 22.410156 15.105469 L 22.332031 15.1875 L 22.445312 15.214844 L 22.449219 15.222656 L 22.367188 15.308594 L 22.484375 15.335938 L 22.484375 15.34375 L 22.40625 15.429688 L 22.519531 15.453125 L 22.523438 15.464844 L 22.445312 15.550781 L 22.558594 15.574219 L 22.558594 15.585938 L 22.484375 15.667969 L 22.59375 15.695312 L 22.597656 15.703125 L 22.519531 15.789062 L 22.632812 15.8125 L 22.636719 15.824219 L 22.558594 15.910156 L 22.671875 15.933594 L 22.671875 15.945312 L 22.597656 16.027344 L 22.707031 16.054688 L 22.710938 16.0625 L 22.632812 16.148438 L 22.746094 16.171875 L 22.75 16.183594 L 22.671875 16.269531 L 22.78125 16.292969 L 22.785156 16.304688 L 22.710938 16.386719 L 22.820312 16.414062 L 22.824219 16.425781 L 22.746094 16.507812 L 22.859375 16.53125 L 22.863281 16.542969 L 22.785156 16.628906 L 22.898438 16.652344 L 22.902344 16.664062 L 22.824219 16.75 L 22.933594 16.773438 L 22.9375 16.785156 L 22.863281 16.867188 L 22.972656 16.894531 L 22.976562 16.902344 L 22.898438 16.988281 L 23.011719 17.011719 L 23.015625 17.023438 L 22.9375 17.109375 L 23.046875 17.132812 L 23.050781 17.144531 L 22.976562 17.226562 L 23.085938 17.253906 L 23.089844 17.265625 L 23.011719 17.347656 L 23.125 17.371094 L 23.128906 17.382812 L 23.050781 17.46875 L 23.160156 17.492188 L 23.164062 17.503906 L 23.085938 17.585938 L 23.199219 17.613281 L 23.203125 17.625 L 23.125 17.707031 L 23.234375 17.730469 L 23.238281 17.746094 L 23.164062 17.828125 L 23.273438 17.851562 L 23.277344 17.863281 L 23.199219 17.949219 L 23.308594 17.972656 L 23.3125 17.984375 L 23.238281 18.070312 L 23.347656 18.09375 L 23.351562 18.105469 L 23.277344 18.1875 L 23.386719 18.214844 L 23.390625 18.226562 L 23.3125 18.308594 L 23.421875 18.332031 L 23.425781 18.34375 L 23.351562 18.429688 L 23.460938 18.453125 L 23.464844 18.464844 L 23.386719 18.546875 L 23.496094 18.574219 L 23.503906 18.585938 L 23.425781 18.667969 L 23.535156 18.691406 L 23.539062 18.707031 L 23.464844 18.789062 L 23.574219 18.8125 L 23.578125 18.824219 L 23.503906 18.910156 L 23.613281 18.933594 L 23.617188 18.945312 L 23.539062 19.027344 L 23.648438 19.050781 L 23.652344 19.066406 L 23.578125 19.148438 L 23.6875 19.171875 L 23.691406 19.1875 L 23.613281 19.269531 L 23.722656 19.292969 L 23.726562 19.304688 L 23.652344 19.386719 L 23.761719 19.414062 L 23.765625 19.425781 L 23.691406 19.507812 L 23.796875 19.535156 L 23.800781 19.546875 L 23.726562 19.628906 L 23.835938 19.652344 L 23.839844 19.667969 L 23.765625 19.75 L 23.875 19.773438 L 23.878906 19.789062 L 23.804688 19.871094 L 23.910156 19.894531 L 23.914062 19.910156 L 23.839844 19.988281 L 23.949219 20.015625 L 23.953125 20.027344 L 23.878906 20.109375 L 23.984375 20.132812 L 23.992188 20.148438 L 23.917969 20.230469 L 24.023438 20.253906 L 24.027344 20.269531 L 23.953125 20.351562 L 24.0625 20.375 L 24.066406 20.390625 L 23.992188 20.46875 L 24.097656 20.496094 L 24.105469 20.507812 L 24.03125 20.589844 L 24.136719 20.613281 L 24.140625 20.628906 L 24.066406 20.710938 L 24.175781 20.734375 L 24.179688 20.75 L 24.105469 20.832031 L 24.210938 20.855469 L 24.21875 20.871094 L 24.144531 20.949219 L 24.25 20.972656 L 24.253906 20.988281 L 24.179688 21.070312 L 24.289062 21.09375 L 24.292969 21.109375 L 24.21875 21.191406 L 24.324219 21.214844 L 24.332031 21.230469 L 24.257812 21.3125 L 24.363281 21.335938 L 24.367188 21.351562 L 24.292969 21.429688 L 24.402344 21.453125 L 24.40625 21.46875 L 24.332031 21.550781 L 24.4375 21.574219 L 24.445312 21.589844 L 24.371094 21.671875 L 24.476562 21.695312 L 24.480469 21.710938 L 24.410156 21.789062 L 24.515625 21.8125 L 24.519531 21.832031 L 24.445312 21.910156 L 24.550781 21.933594 L 24.558594 21.949219 L 24.484375 22.03125 L 24.589844 22.054688 L 24.59375 22.070312 L 24.523438 22.148438 L 24.628906 22.171875 L 24.632812 22.191406 L 24.558594 22.269531 L 24.664062 22.292969 L 24.671875 22.3125 L 24.597656 22.390625 L 24.703125 22.414062 L 24.707031 22.429688 L 24.636719 22.511719 L 24.742188 22.53125 L 24.746094 22.550781 L 24.671875 22.628906 L 24.777344 22.652344 L 24.78125 22.671875 L 24.710938 22.75 L 24.816406 22.773438 L 24.820312 22.789062 L 24.75 22.871094 L 24.851562 22.894531 L 24.859375 22.910156 L 24.785156 22.992188 L 24.890625 23.011719 L 24.894531 23.03125 L 24.859375 23.070312 C 24.203125 23.089844 23.550781 23.105469 22.90625 23.125 C 22.746094 22.785156 22.566406 22.46875 22.359375 22.136719 C 22.355469 22.121094 22.335938 22.109375 22.3125 22.105469 L 22.152344 21.828125 C 22.140625 21.804688 22.097656 21.796875 22.050781 21.808594 C 22.0625 21.820312 22.070312 21.832031 22.078125 21.84375 C 22.082031 21.847656 22.082031 21.847656 22.082031 21.847656 C 22.101562 21.882812 22.09375 21.933594 22.023438 21.980469 C 21.988281 22 21.949219 22.015625 21.910156 22.019531 C 21.875 22.019531 21.84375 22.011719 21.824219 21.984375 C 21.820312 21.980469 21.804688 21.957031 21.796875 21.949219 C 21.785156 21.964844 21.78125 21.980469 21.785156 21.992188 C 21.785156 21.996094 21.785156 22.003906 21.789062 22.007812 C 21.789062 22.011719 21.941406 22.320312 21.941406 22.320312 C 21.9375 22.332031 21.9375 22.34375 21.941406 22.355469 C 21.941406 22.359375 21.941406 22.359375 21.941406 22.359375 C 21.945312 22.363281 21.945312 22.363281 21.945312 22.367188 C 22.050781 22.636719 22.144531 22.894531 22.257812 23.144531 C 21.195312 23.175781 20.15625 23.214844 19.132812 23.25 C 18.785156 22.574219 18.101562 21.253906 18.023438 21.105469 C 17.921875 20.90625 18.246094 20.609375 18.003906 20.144531 C 17.894531 19.929688 17.625 19.6875 17.398438 19.671875 L 17.632812 20.132812 C 17.71875 20.300781 17.679688 20.457031 17.46875 20.5625 C 17.261719 20.671875 17.109375 20.617188 17.023438 20.445312 L 16.847656 20.113281 C 16.730469 20.308594 16.707031 20.542969 16.816406 20.757812 C 17.058594 21.222656 17.484375 21.128906 17.589844 21.328125 C 17.660156 21.464844 18.226562 22.5625 18.59375 23.273438 C 17.644531 23.308594 16.714844 23.347656 15.808594 23.390625 L 14.535156 20.230469 L 14.628906 19.894531 L 13.582031 20.316406 L 13.878906 20.496094 L 15.058594 23.425781 C 13.816406 23.484375 12.613281 23.546875 11.453125 23.613281 C 11.273438 23.324219 11.0625 22.96875 11.003906 22.78125 C 10.859375 22.332031 11.347656 21.730469 11.347656 21.730469 L 11.332031 21.6875 L 9.675781 22.214844 L 9.691406 22.257812 C 9.691406 22.257812 10.433594 22.46875 10.574219 22.917969 C 10.625 23.070312 10.65625 23.371094 10.679688 23.664062 C 9.820312 23.714844 8.988281 23.769531 8.179688 23.828125 L 7.910156 23.398438 C 7.910156 23.398438 7.664062 23.226562 7.539062 23.035156 C 7.496094 22.964844 7.503906 22.757812 7.503906 22.757812 L 7.390625 22.574219 L 7.246094 22.664062 L 6.472656 21.375 L 6.476562 21.277344 L 6.296875 20.945312 L 6.179688 21.011719 L 6.175781 21.015625 L 6.167969 21.019531 L 6.054688 21.089844 L 6.261719 21.40625 L 6.351562 21.449219 L 7.125 22.734375 L 6.976562 22.824219 L 7.085938 23.007812 C 7.085938 23.007812 7.273438 23.097656 7.3125 23.171875 C 7.421875 23.371094 7.460938 23.667969 7.460938 23.667969 L 7.574219 23.871094 C 5.179688 24.042969 3.023438 24.238281 1.152344 24.449219 L 77.351562 24.449219 Z M 26.839844 22.875 C 26.925781 22.785156 27.078125 22.796875 27.175781 22.894531 C 27.210938 22.929688 27.234375 22.96875 27.246094 23.011719 C 27.0625 23.015625 26.878906 23.019531 26.699219 23.023438 Z M 26.546875 20.832031 C 26.570312 20.816406 26.605469 20.828125 26.617188 20.851562 C 26.632812 20.878906 26.621094 20.910156 26.597656 20.925781 C 26.570312 20.9375 26.539062 20.929688 26.523438 20.902344 C 26.507812 20.878906 26.519531 20.847656 26.546875 20.832031 Z M 25.828125 21.425781 C 25.855469 21.410156 25.886719 21.421875 25.902344 21.445312 C 25.914062 21.472656 25.90625 21.503906 25.878906 21.519531 C 25.855469 21.53125 25.820312 21.523438 25.808594 21.496094 C 25.792969 21.472656 25.804688 21.4375 25.828125 21.425781 Z M 17.796875 21.175781 C 17.675781 21.238281 17.554688 21.25 17.5 21.207031 C 17.5625 21.234375 17.675781 21.21875 17.785156 21.160156 C 17.898438 21.105469 17.972656 21.023438 17.988281 20.953125 C 17.992188 21.023438 17.914062 21.117188 17.796875 21.175781 Z M 20.21875 18.386719 C 20.140625 18.242188 20.007812 18.292969 20.019531 18.457031 C 20.085938 19.34375 20.152344 20.21875 20.316406 21.082031 C 20.398438 21.5 20.820312 21.8125 21.082031 21.695312 C 21.0625 21.667969 21.039062 21.640625 21.019531 21.605469 C 20.941406 21.476562 20.96875 21.378906 20.996094 21.285156 C 21.003906 21.253906 21.011719 21.222656 21.015625 21.191406 L 20.207031 18.632812 L 21.058594 21.144531 C 21.066406 21.148438 21.070312 21.148438 21.078125 21.152344 C 21.191406 21.210938 21.21875 21.3125 21.242188 21.40625 C 21.25 21.429688 21.257812 21.449219 21.261719 21.472656 C 21.386719 21.191406 21.476562 20.664062 21.304688 20.304688 C 20.984375 19.617188 20.597656 19.066406 20.21875 18.386719 Z M 25.851562 21.480469 L 25.863281 21.503906 L 25.875 21.496094 L 25.863281 21.476562 L 25.886719 21.464844 L 25.878906 21.449219 L 25.855469 21.460938 L 25.847656 21.441406 L 25.832031 21.449219 L 25.84375 21.46875 L 25.824219 21.480469 L 25.832031 21.492188 Z M 25.851562 21.480469 " fill-opacity="1" fill-rule="nonzero"/></g></svg>