<svg xmlns="http://www.w3.org/2000/svg" xmlns:xlink="http://www.w3.org/1999/xlink" width="500" zoomAndPan="magnify" viewBox="0 0 375 374.999991" height="500" preserveAspectRatio="xMidYMid meet" version="1.0"><defs><g/><clipPath id="92b15a6c12"><path d="M 0 79.9375 L 375 79.9375 L 375 199.9375 L 0 199.9375 Z M 0 79.9375 " clip-rule="nonzero"/></clipPath></defs><g fill="#ffffff" fill-opacity="1"><g transform="translate(143.080181, 238.320292)"><g><path d="M 9.660156 -6.175781 L 9.660156 -27.867188 L 2.554688 -27.867188 L 2.554688 0 L 18.53125 0 L 18.53125 -6.175781 Z M 9.660156 -6.175781 "/></g></g></g><g fill="#ffffff" fill-opacity="1"><g transform="translate(163.354239, 238.320292)"><g><path d="M 14.351562 0.371094 C 21.039062 0.371094 26.289062 -3.667969 26.289062 -8.871094 L 26.289062 -27.867188 L 19.179688 -27.867188 L 19.179688 -10.21875 C 19.179688 -7.757812 17.042969 -5.804688 14.351562 -5.804688 C 11.65625 -5.804688 9.519531 -7.757812 9.519531 -10.21875 L 9.519531 -27.867188 L 2.414062 -27.867188 L 2.414062 -8.871094 C 2.414062 -3.667969 7.664062 0.371094 14.351562 0.371094 Z M 14.351562 0.371094 "/></g></g></g><g fill="#ffffff" fill-opacity="1"><g transform="translate(193.797664, 238.320292)"><g><path d="M 9.660156 -6.175781 L 9.660156 -27.867188 L 2.554688 -27.867188 L 2.554688 0 L 18.53125 0 L 18.53125 -6.175781 Z M 9.660156 -6.175781 "/></g></g></g><g fill="#ffffff" fill-opacity="1"><g transform="translate(214.071724, 238.320292)"><g><path d="M 2.785156 0 L 9.890625 0 L 9.890625 -27.867188 L 2.785156 -27.867188 Z M 2.785156 0 "/></g></g></g><g fill="#ffffff" fill-opacity="1"><g transform="translate(77.019331, 260.623576)"><g><path d="M 5.796875 0.136719 C 7.8125 0.136719 9.578125 -1.015625 10.441406 -2.710938 L 8.203125 -3.847656 C 7.761719 -2.964844 6.882812 -2.40625 5.796875 -2.40625 C 4.253906 -2.40625 3.101562 -3.542969 3.101562 -5.085938 C 3.101562 -6.628906 4.253906 -7.761719 5.796875 -7.761719 C 6.882812 -7.761719 7.761719 -7.203125 8.203125 -6.324219 L 10.441406 -7.457031 C 9.578125 -9.152344 7.8125 -10.304688 5.796875 -10.304688 C 2.898438 -10.304688 0.578125 -7.964844 0.578125 -5.085938 C 0.578125 -2.203125 2.898438 0.136719 5.796875 0.136719 Z M 5.796875 0.136719 "/></g></g></g><g fill="#ffffff" fill-opacity="1"><g transform="translate(97.454452, 260.623576)"><g><path d="M 5.796875 0.136719 C 8.679688 0.136719 11.015625 -2.203125 11.015625 -5.085938 C 11.015625 -7.964844 8.679688 -10.304688 5.796875 -10.304688 C 2.898438 -10.304688 0.578125 -7.964844 0.578125 -5.085938 C 0.578125 -2.203125 2.898438 0.136719 5.796875 0.136719 Z M 5.796875 -2.40625 C 4.253906 -2.40625 3.101562 -3.542969 3.101562 -5.085938 C 3.101562 -6.628906 4.253906 -7.761719 5.796875 -7.761719 C 7.324219 -7.761719 8.476562 -6.628906 8.476562 -5.085938 C 8.476562 -3.542969 7.324219 -2.40625 5.796875 -2.40625 Z M 5.796875 -2.40625 "/></g></g></g><g fill="#ffffff" fill-opacity="1"><g transform="translate(118.618345, 260.623576)"><g><path d="M 8.238281 -10.171875 L 8.238281 -3.949219 L 3.644531 -10.171875 L 0.933594 -10.171875 L 0.933594 0 L 3.527344 0 L 3.527344 -6.238281 L 8.101562 0 L 10.832031 0 L 10.832031 -10.171875 Z M 8.238281 -10.171875 "/></g></g></g><g fill="#ffffff" fill-opacity="1"><g transform="translate(139.968664, 260.623576)"><g><path d="M 4.253906 0.136719 C 6.203125 0.136719 7.882812 -1 7.882812 -2.949219 C 7.882812 -6.8125 3.269531 -5.847656 3.269531 -7.390625 C 3.269531 -7.832031 3.609375 -8.035156 4.015625 -8.035156 C 4.527344 -8.035156 5.085938 -7.730469 5.628906 -7.152344 L 7.324219 -8.796875 C 6.527344 -9.730469 5.324219 -10.304688 4.050781 -10.304688 C 2.441406 -10.304688 0.660156 -9.375 0.660156 -7.203125 C 0.660156 -3.679688 5.289062 -4.527344 5.289062 -2.984375 C 5.289062 -2.578125 4.949219 -2.289062 4.289062 -2.289062 C 3.40625 -2.289062 2.695312 -2.761719 2.339844 -3.527344 L 0.21875 -2.203125 C 0.898438 -0.914062 2.390625 0.136719 4.253906 0.136719 Z M 4.253906 0.136719 "/></g></g></g><g fill="#ffffff" fill-opacity="1"><g transform="translate(157.810711, 260.623576)"><g><path d="M 7.40625 -10.171875 L -0.152344 -10.171875 L -0.152344 -7.914062 L 2.339844 -7.914062 L 2.339844 0 L 4.914062 0 L 4.914062 -7.914062 L 7.40625 -7.914062 Z M 7.40625 -10.171875 "/></g></g></g><g fill="#ffffff" fill-opacity="1"><g transform="translate(174.65282, 260.623576)"><g><path d="M 6.59375 -4.035156 C 7.761719 -4.441406 8.578125 -5.578125 8.578125 -6.964844 C 8.578125 -8.730469 7.273438 -10.171875 5.457031 -10.171875 L 0.933594 -10.171875 L 0.933594 0 L 3.527344 0 L 3.527344 -3.730469 L 4.117188 -3.730469 L 6.492188 0 L 9.40625 0 Z M 5.035156 -5.8125 L 3.527344 -5.8125 L 3.527344 -7.914062 L 5.035156 -7.914062 C 5.644531 -7.914062 6.085938 -7.476562 6.085938 -6.863281 C 6.085938 -6.253906 5.644531 -5.8125 5.035156 -5.8125 Z M 5.035156 -5.8125 "/></g></g></g><g fill="#ffffff" fill-opacity="1"><g transform="translate(193.494806, 260.623576)"><g><path d="M 5.238281 0.136719 C 7.679688 0.136719 9.59375 -1.339844 9.59375 -3.238281 L 9.59375 -10.171875 L 7 -10.171875 L 7 -3.730469 C 7 -2.832031 6.21875 -2.117188 5.238281 -2.117188 C 4.253906 -2.117188 3.476562 -2.832031 3.476562 -3.730469 L 3.476562 -10.171875 L 0.882812 -10.171875 L 0.882812 -3.238281 C 0.882812 -1.339844 2.796875 0.136719 5.238281 0.136719 Z M 5.238281 0.136719 "/></g></g></g><g fill="#ffffff" fill-opacity="1"><g transform="translate(213.557065, 260.623576)"><g><path d="M 5.796875 0.136719 C 7.8125 0.136719 9.578125 -1.015625 10.441406 -2.710938 L 8.203125 -3.847656 C 7.761719 -2.964844 6.882812 -2.40625 5.796875 -2.40625 C 4.253906 -2.40625 3.101562 -3.542969 3.101562 -5.085938 C 3.101562 -6.628906 4.253906 -7.761719 5.796875 -7.761719 C 6.882812 -7.761719 7.761719 -7.203125 8.203125 -6.324219 L 10.441406 -7.457031 C 9.578125 -9.152344 7.8125 -10.304688 5.796875 -10.304688 C 2.898438 -10.304688 0.578125 -7.964844 0.578125 -5.085938 C 0.578125 -2.203125 2.898438 0.136719 5.796875 0.136719 Z M 5.796875 0.136719 "/></g></g></g><g fill="#ffffff" fill-opacity="1"><g transform="translate(233.992183, 260.623576)"><g><path d="M 7.40625 -10.171875 L -0.152344 -10.171875 L -0.152344 -7.914062 L 2.339844 -7.914062 L 2.339844 0 L 4.914062 0 L 4.914062 -7.914062 L 7.40625 -7.914062 Z M 7.40625 -10.171875 "/></g></g></g><g fill="#ffffff" fill-opacity="1"><g transform="translate(250.834291, 260.623576)"><g><path d="M 1.015625 0 L 3.609375 0 L 3.609375 -10.171875 L 1.015625 -10.171875 Z M 1.015625 0 "/></g></g></g><g fill="#ffffff" fill-opacity="1"><g transform="translate(265.032482, 260.623576)"><g><path d="M 5.796875 0.136719 C 8.679688 0.136719 11.015625 -2.203125 11.015625 -5.085938 C 11.015625 -7.964844 8.679688 -10.304688 5.796875 -10.304688 C 2.898438 -10.304688 0.578125 -7.964844 0.578125 -5.085938 C 0.578125 -2.203125 2.898438 0.136719 5.796875 0.136719 Z M 5.796875 -2.40625 C 4.253906 -2.40625 3.101562 -3.542969 3.101562 -5.085938 C 3.101562 -6.628906 4.253906 -7.761719 5.796875 -7.761719 C 7.324219 -7.761719 8.476562 -6.628906 8.476562 -5.085938 C 8.476562 -3.542969 7.324219 -2.40625 5.796875 -2.40625 Z M 5.796875 -2.40625 "/></g></g></g><g fill="#ffffff" fill-opacity="1"><g transform="translate(286.196372, 260.623576)"><g><path d="M 8.238281 -10.171875 L 8.238281 -3.949219 L 3.644531 -10.171875 L 0.933594 -10.171875 L 0.933594 0 L 3.527344 0 L 3.527344 -6.238281 L 8.101562 0 L 10.832031 0 L 10.832031 -10.171875 Z M 8.238281 -10.171875 "/></g></g></g><g clip-path="url(#92b15a6c12)"><path fill="#ea580b" d="M 122.074219 123.863281 L 114.371094 125.003906 L 114.371094 131.609375 L 122.074219 130.664062 Z M 106.378906 139.898438 L 113.085938 139.539062 L 113.085938 132.96875 L 106.378906 133.785156 Z M 113.085938 125.191406 L 106.378906 126.183594 L 106.378906 132.585938 L 113.085938 131.765625 Z M 114.371094 139.46875 L 122.074219 139.054688 L 122.074219 131.867188 L 114.371094 132.8125 Z M 219.71875 132.75 L 228.101562 132.296875 L 228.101562 124.085938 L 219.71875 125.113281 Z M 229.703125 132.214844 L 239.335938 131.699219 L 239.335938 122.714844 L 229.703125 123.894531 Z M 239.335938 112.707031 L 229.703125 114.132812 L 229.703125 122.390625 L 239.335938 121.210938 Z M 228.101562 114.367188 L 219.71875 115.609375 L 219.71875 123.613281 L 228.101562 122.585938 Z M 216.75 186.96875 C 223.753906 186.164062 230.773438 185.46875 237.792969 184.875 L 237.792969 148.90625 L 216.75 151.574219 Z M 125.078125 182.71875 L 125.132812 182.820312 L 125.199219 182.785156 L 125.144531 182.683594 L 125.25 182.628906 L 125.214844 182.5625 L 125.109375 182.617188 L 125.058594 182.515625 L 124.992188 182.550781 L 125.046875 182.652344 L 124.941406 182.707031 L 124.976562 182.769531 Z M 48.878906 182.617188 L 47.214844 177.382812 L 46.855469 177.5 L 47.351562 179.140625 L 46.765625 177.527344 L 46.273438 177.683594 L 47.289062 181.027344 L 46.117188 177.730469 L 45.820312 177.828125 L 46.457031 179.960938 L 45.699219 177.863281 L 44.394531 178.277344 L 44.84375 179.761719 L 44.3125 178.300781 L 44 178.402344 L 44.644531 180.535156 L 43.882812 178.4375 L 42.339844 178.929688 L 42.933594 180.902344 L 42.230469 178.964844 L 41.890625 179.070312 L 42.53125 181.207031 L 41.773438 179.109375 L 40.566406 179.488281 L 41.253906 181.769531 L 40.441406 179.53125 L 39.746094 179.75 L 40.269531 181.496094 L 39.648438 179.78125 L 39.058594 179.96875 L 40.722656 185.203125 Z M 67.21875 166.957031 L 64.953125 161.335938 L 46.355469 168.832031 L 48.621094 174.453125 Z M 67.300781 164.132812 L 68.800781 167.855469 L 62.890625 176.9375 C 62.804688 177.070312 62.789062 177.234375 62.851562 177.382812 L 63.398438 178.742188 L 64.296875 178.382812 L 63.84375 177.253906 L 69.757812 168.171875 C 69.84375 168.039062 69.859375 167.875 69.800781 167.726562 L 68.023438 163.324219 C 67.925781 163.074219 67.640625 162.953125 67.394531 163.054688 L 66.113281 163.566406 L 66.476562 164.464844 Z M 41.929688 189.019531 L 50.089844 186.425781 L 48.941406 182.816406 L 40.785156 185.40625 Z M 175.859375 158.757812 C 180.230469 157.410156 183.914062 163.441406 183.914062 163.441406 L 184.867188 162.449219 C 184.867188 162.449219 177.195312 150.21875 171.300781 151.71875 C 166.230469 153.011719 163.484375 154.128906 163.484375 154.128906 L 162.429688 154.453125 C 162.019531 155.707031 160.933594 156.789062 159.445312 157.246094 C 157.957031 157.707031 156.445312 157.421875 155.402344 156.621094 L 151.816406 157.726562 L 154.507812 166.460938 L 157.738281 165.464844 C 157.738281 165.464844 158.742188 164.175781 161.300781 163.253906 C 163.546875 162.445312 166.5625 163.648438 167.171875 165.632812 C 167.1875 165.679688 167.199219 165.734375 167.214844 165.785156 L 173.9375 163.714844 C 173.691406 162.703125 173.175781 159.582031 175.859375 158.757812 Z M 202.171875 173.089844 C 202.011719 173.101562 201.859375 173.136719 201.71875 173.1875 L 200.359375 173.480469 C 200.070312 173.257812 199.675781 173.121094 199.238281 173.121094 C 198.800781 173.121094 198.410156 173.261719 198.121094 173.480469 L 196.761719 173.1875 C 196.621094 173.136719 196.46875 173.101562 196.308594 173.089844 L 196.28125 173.082031 L 196.28125 173.089844 C 196.246094 173.085938 196.214844 173.082031 196.183594 173.082031 C 195.375 173.082031 194.722656 173.652344 194.722656 174.351562 C 194.722656 175.050781 195.378906 175.617188 196.183594 175.617188 C 196.332031 175.617188 196.480469 175.597656 196.613281 175.5625 L 198.195312 175.351562 C 198.285156 175.410156 198.378906 175.460938 198.480469 175.503906 L 198.480469 176.976562 L 197.878906 176.976562 C 197.757812 176.976562 197.660156 177.074219 197.660156 177.195312 C 197.660156 177.316406 197.761719 177.414062 197.878906 177.414062 L 200.597656 177.414062 C 200.71875 177.414062 200.816406 177.316406 200.816406 177.195312 C 200.816406 177.074219 200.71875 176.976562 200.597656 176.976562 L 200 176.976562 L 200 175.503906 C 200.101562 175.460938 200.195312 175.410156 200.28125 175.351562 L 201.863281 175.5625 C 202 175.597656 202.144531 175.617188 202.296875 175.617188 C 203.101562 175.617188 203.753906 175.050781 203.753906 174.351562 C 203.753906 173.652344 203.101562 173.082031 202.296875 173.082031 C 202.261719 173.082031 202.226562 173.085938 202.195312 173.089844 L 202.195312 173.082031 Z M 197.230469 177.59375 C 197.019531 177.59375 196.847656 177.765625 196.847656 177.976562 C 196.847656 178.191406 197.019531 178.363281 197.230469 178.363281 L 201.167969 178.363281 C 201.382812 178.363281 201.554688 178.191406 201.554688 177.976562 C 201.554688 177.765625 201.382812 177.59375 201.167969 177.59375 Z M 97.972656 184.179688 C 97.867188 184.898438 97.484375 185.375 97.949219 186.140625 C 98.835938 187.609375 99.527344 187.335938 101.242188 187.375 C 101.546875 187.382812 101.714844 187.742188 101.921875 187.964844 C 102.148438 188.265625 103.019531 187.789062 102.871094 187.523438 C 102.445312 187 101.9375 186.539062 101.316406 186.484375 C 100.679688 186.425781 99.859375 186.800781 99.335938 186.4375 C 98.460938 185.828125 98.921875 184.667969 97.972656 184.179688 Z M 374.960938 200.214844 C 370.121094 199.667969 364.894531 199.144531 359.3125 198.644531 L 356.84375 144.5 L 320.726562 107.148438 L 308.285156 103.5 L 308.285156 95.335938 L 297.558594 88.707031 L 291.332031 90.378906 L 291.332031 98.515625 L 228.042969 79.9375 L 209.617188 103.597656 L 172.773438 108.265625 L 141.644531 136.667969 L 166.039062 108.515625 L 120.644531 89.75 L 82.652344 147.226562 L 121.011719 100.019531 L 137.933594 144.039062 L 138.769531 162.152344 C 138.882812 161.136719 139.839844 151.164062 140.339844 145.953125 L 191.691406 142.878906 L 192.9375 169.609375 C 193.132812 167.828125 195.070312 147.839844 195.640625 141.96875 L 229.914062 92 L 266.640625 142.40625 L 266.640625 193.664062 C 249.460938 193.167969 231.304688 192.832031 212.449219 192.671875 L 212.449219 184.804688 C 212.449219 182.757812 210.785156 181.09375 208.738281 181.09375 L 207.277344 181.09375 L 207.277344 180.179688 L 205.714844 180.179688 L 205.285156 180.808594 L 205.285156 180.839844 L 205.253906 180.839844 L 205.253906 181.097656 L 202.007812 181.097656 C 201.820312 180.761719 201.5625 180.464844 201.253906 180.222656 L 201.253906 178.578125 L 197.285156 178.578125 L 197.285156 180.222656 C 196.976562 180.464844 196.71875 180.761719 196.535156 181.097656 L 194.675781 181.097656 C 192.628906 181.097656 190.964844 182.761719 190.964844 184.804688 L 190.964844 186.4375 L 190.863281 186.4375 C 190.632812 186.4375 190.445312 186.625 190.445312 186.851562 C 190.445312 187.085938 190.632812 187.269531 190.863281 187.269531 L 193.476562 187.269531 C 193.707031 187.269531 193.894531 187.082031 193.894531 186.851562 C 193.894531 186.625 193.710938 186.441406 193.488281 186.4375 L 193.488281 184.804688 C 193.488281 184.148438 194.023438 183.621094 194.675781 183.621094 L 196.546875 183.621094 C 197.054688 184.519531 198.082031 185.140625 199.265625 185.140625 C 200.453125 185.140625 201.484375 184.523438 201.992188 183.621094 L 205.25 183.621094 L 205.25 183.910156 L 205.714844 184.609375 L 205.738281 184.566406 L 207.273438 184.566406 L 207.273438 183.621094 L 208.734375 183.621094 C 209.390625 183.621094 209.921875 184.15625 209.921875 184.808594 L 209.921875 192.65625 C 202.550781 192.601562 195.074219 192.570312 187.507812 192.570312 C 186.320312 192.570312 185.132812 192.570312 183.949219 192.574219 L 174.0625 164.175781 L 167.355469 166.242188 L 167.519531 166.78125 L 174.441406 192.597656 C 168.035156 192.628906 161.703125 192.675781 155.453125 192.746094 C 155.328125 191.6875 155.015625 190.527344 154.523438 189.535156 C 154.296875 189.074219 153.585938 188.832031 153.15625 188.546875 C 153.058594 188.335938 152.996094 188.140625 152.996094 187.976562 C 152.980469 184.933594 152.175781 182.316406 151.386719 179.878906 C 151.050781 178.851562 151.992188 178.421875 153.328125 178.390625 C 154.898438 178.347656 156.207031 177.992188 157.445312 176.941406 C 157.757812 176.726562 157.832031 176.71875 157.667969 176.375 C 157.820312 176.3125 157.984375 175.960938 157.953125 175.796875 C 158.910156 175.210938 158.347656 172.363281 157.886719 171.898438 C 157.777344 171.789062 157.707031 171.921875 157.6875 171.769531 C 157.664062 171.570312 157.582031 171.410156 157.390625 171.292969 C 157.675781 171.199219 157.351562 170.8125 157.050781 170.761719 C 155.53125 170.503906 153.980469 170.539062 152.445312 170.441406 C 152.03125 170.335938 151.226562 170 150.847656 170.195312 C 150.296875 170.480469 149.769531 170.667969 149.246094 170.792969 C 149.246094 170.792969 149.246094 170.789062 149.246094 170.785156 C 149.238281 170.703125 148.828125 170.675781 148.28125 170.707031 C 148.234375 170.636719 148.171875 170.574219 148.070312 170.582031 L 147.746094 170.613281 C 147.6875 170.621094 147.664062 170.699219 147.640625 170.769531 C 147.066406 170.847656 146.644531 170.960938 146.652344 171.046875 C 146.652344 171.050781 146.652344 171.050781 146.652344 171.050781 C 146.140625 171.058594 145.609375 171.0625 145.046875 171.085938 C 143.921875 170.644531 143.546875 171.027344 142.726562 171.476562 L 142.722656 171.472656 L 141.550781 171.753906 L 140.3125 172.027344 C 140.332031 172.613281 140.355469 173.207031 140.386719 173.800781 L 140.277344 173.808594 C 140.230469 173.328125 140.167969 172.847656 140.082031 172.371094 L 137.070312 172.539062 C 136.667969 172.558594 136.273438 172.660156 135.898438 172.832031 L 134.199219 173.574219 L 134.238281 174.0625 L 133.972656 174.105469 C 133.964844 174.234375 133.960938 174.367188 133.960938 174.496094 L 132.882812 174.785156 L 132.90625 175.078125 L 130.605469 175.226562 L 130.328125 175.351562 L 130.621094 175.4375 L 132.925781 175.289062 L 132.941406 175.503906 L 134.058594 175.824219 C 134.070312 175.886719 134.082031 175.949219 134.089844 176.015625 L 134.390625 176.035156 L 134.425781 176.492188 L 136.15625 177.054688 C 136.546875 177.183594 136.984375 177.234375 137.382812 177.214844 L 140.417969 177.046875 C 140.410156 176.539062 140.402344 176.035156 140.382812 175.535156 L 140.496094 175.527344 C 140.539062 176.105469 140.589844 176.6875 140.644531 177.273438 L 141.996094 177.386719 L 143.113281 177.574219 L 143.109375 177.5 C 143.683594 177.628906 144.039062 177.675781 144.484375 178.105469 C 145.019531 178.117188 145.40625 178.117188 145.679688 178.179688 C 145.773438 178.199219 145.859375 178.246094 145.929688 178.308594 L 144.609375 178.257812 C 144.398438 178.25 144.351562 178.289062 144.429688 178.492188 C 144.746094 179.3125 144.746094 180.035156 144.460938 180.738281 C 144.410156 180.855469 144.515625 180.914062 144.636719 180.941406 L 145.742188 180.972656 C 145.519531 181.050781 145.230469 181.175781 145.421875 181.355469 C 145.625 181.574219 146.601562 181.402344 146.664062 181.929688 C 146.894531 183.871094 148.261719 185.570312 148.386719 187.492188 C 148.355469 188.089844 148.167969 188.492188 147.875 188.800781 C 147.640625 189.050781 147.398438 189.191406 147.082031 189.238281 L 147.097656 189.601562 C 146.085938 189.804688 145.09375 190.144531 144.390625 190.753906 C 144.203125 190.917969 144.246094 191.234375 144.195312 191.480469 L 143.074219 192.910156 C 139.128906 192.96875 135.226562 193.035156 131.363281 193.113281 L 125.285156 181.707031 L 121.078125 185.148438 L 118.59375 193.394531 C 118.445312 193.398438 118.289062 193.402344 118.140625 193.40625 L 120.703125 184.898438 L 125.082031 181.316406 L 105.621094 144.773438 L 102.167969 146.613281 L 101.820312 146.996094 L 102.386719 147.117188 L 102.394531 147.15625 L 102.003906 147.582031 L 102.566406 147.707031 L 102.582031 147.742188 L 102.191406 148.171875 L 102.753906 148.296875 L 102.761719 148.335938 L 102.375 148.765625 L 102.941406 148.890625 L 102.949219 148.929688 L 102.558594 149.355469 L 103.121094 149.480469 L 103.136719 149.519531 L 102.746094 149.945312 L 103.308594 150.074219 L 103.324219 150.113281 L 102.933594 150.539062 L 103.496094 150.664062 L 103.507812 150.703125 L 103.121094 151.132812 L 103.679688 151.257812 L 103.691406 151.296875 L 103.304688 151.71875 L 103.863281 151.839844 L 103.878906 151.882812 L 103.492188 152.308594 L 104.054688 152.433594 L 104.066406 152.476562 L 103.679688 152.902344 L 104.238281 153.027344 L 104.25 153.070312 L 103.863281 153.492188 L 104.421875 153.617188 L 104.433594 153.660156 L 104.050781 154.082031 L 104.605469 154.207031 L 104.621094 154.253906 L 104.234375 154.675781 L 104.792969 154.800781 L 104.808594 154.84375 L 104.417969 155.265625 L 104.980469 155.390625 L 104.992188 155.433594 L 104.605469 155.855469 L 105.160156 155.980469 L 105.175781 156.027344 L 104.792969 156.445312 L 105.347656 156.566406 L 105.363281 156.617188 L 104.980469 157.035156 L 105.53125 157.15625 L 105.546875 157.207031 L 105.164062 157.625 L 105.714844 157.75 L 105.730469 157.796875 L 105.347656 158.214844 L 105.902344 158.335938 L 105.917969 158.386719 L 105.535156 158.804688 L 106.089844 158.929688 L 106.105469 158.976562 L 105.722656 159.394531 L 106.273438 159.515625 L 106.289062 159.566406 L 105.90625 159.984375 L 106.457031 160.105469 L 106.476562 160.15625 L 106.097656 160.570312 L 106.648438 160.695312 L 106.660156 160.75 L 106.28125 161.164062 L 106.832031 161.285156 L 106.847656 161.339844 L 106.46875 161.753906 L 107.015625 161.875 L 107.035156 161.925781 L 106.65625 162.34375 L 107.203125 162.464844 L 107.222656 162.519531 L 106.84375 162.933594 L 107.390625 163.054688 L 107.410156 163.109375 L 107.03125 163.527344 L 107.578125 163.644531 L 107.59375 163.699219 L 107.210938 164.113281 L 107.761719 164.234375 L 107.78125 164.292969 L 107.398438 164.707031 L 107.945312 164.824219 L 107.964844 164.882812 L 107.585938 165.292969 L 108.132812 165.414062 L 108.148438 165.472656 L 107.773438 165.882812 L 108.320312 166.003906 L 108.335938 166.058594 L 107.957031 166.472656 L 108.5 166.59375 L 108.519531 166.65625 L 108.140625 167.066406 L 108.6875 167.1875 L 108.703125 167.246094 L 108.328125 167.65625 L 108.867188 167.777344 L 108.886719 167.835938 L 108.507812 168.25 L 109.050781 168.367188 L 109.070312 168.429688 L 108.695312 168.839844 L 109.238281 168.960938 L 109.257812 169.019531 L 108.882812 169.429688 L 109.421875 169.554688 L 109.441406 169.613281 L 109.066406 170.023438 L 109.605469 170.140625 L 109.625 170.203125 L 109.25 170.609375 L 109.789062 170.730469 L 109.808594 170.792969 L 109.4375 171.199219 L 109.976562 171.320312 L 109.996094 171.386719 L 109.625 171.792969 L 110.164062 171.910156 L 110.183594 171.976562 L 109.8125 172.382812 L 110.351562 172.503906 L 110.371094 172.566406 L 109.996094 172.972656 L 110.535156 173.09375 L 110.554688 173.160156 L 110.179688 173.566406 L 110.71875 173.683594 L 110.734375 173.75 L 110.367188 174.15625 L 110.898438 174.277344 L 110.921875 174.34375 L 110.550781 174.746094 L 111.085938 174.863281 L 111.105469 174.929688 L 110.734375 175.335938 L 111.265625 175.453125 L 111.289062 175.523438 L 110.921875 175.929688 L 111.453125 176.046875 L 111.472656 176.117188 L 111.105469 176.523438 L 111.636719 176.640625 L 111.660156 176.710938 L 111.289062 177.113281 L 111.824219 177.230469 L 111.84375 177.300781 L 111.476562 177.703125 L 112.007812 177.824219 L 112.027344 177.894531 L 111.660156 178.296875 L 112.191406 178.414062 L 112.214844 178.484375 L 111.847656 178.882812 L 112.378906 179.003906 L 112.402344 179.078125 L 112.035156 179.476562 L 112.566406 179.59375 L 112.589844 179.667969 L 112.222656 180.066406 L 112.75 180.183594 L 112.773438 180.261719 L 112.410156 180.660156 L 112.933594 180.777344 L 112.957031 180.847656 L 112.59375 181.246094 L 113.121094 181.363281 L 113.144531 181.441406 L 112.777344 181.839844 L 113.304688 181.957031 L 113.332031 182.03125 L 112.964844 182.433594 L 113.492188 182.546875 L 113.515625 182.621094 L 113.152344 183.019531 L 113.675781 183.136719 L 113.699219 183.214844 L 113.339844 183.613281 L 113.863281 183.726562 L 113.886719 183.804688 L 113.523438 184.203125 L 114.046875 184.316406 L 114.074219 184.398438 L 113.707031 184.792969 L 114.230469 184.90625 L 114.257812 184.984375 L 113.894531 185.382812 L 114.417969 185.5 L 114.441406 185.578125 L 114.082031 185.972656 L 114.605469 186.085938 L 114.628906 186.167969 L 114.269531 186.5625 L 114.792969 186.675781 L 114.816406 186.757812 L 114.457031 187.152344 L 114.980469 187.265625 L 115.003906 187.351562 L 114.644531 187.742188 L 115.160156 187.859375 L 115.1875 187.9375 L 114.828125 188.332031 L 115.347656 188.445312 L 115.375 188.53125 L 115.011719 188.921875 L 115.535156 189.035156 L 115.558594 189.121094 L 115.199219 189.511719 L 115.71875 189.628906 L 115.742188 189.714844 L 115.386719 190.105469 L 115.90625 190.21875 L 115.929688 190.300781 L 115.574219 190.695312 L 116.085938 190.808594 L 116.117188 190.894531 L 115.757812 191.285156 L 116.273438 191.398438 L 116.296875 191.484375 L 115.941406 191.878906 L 116.457031 191.992188 L 116.484375 192.074219 L 116.125 192.464844 L 116.644531 192.582031 L 116.671875 192.667969 L 116.3125 193.058594 L 116.828125 193.171875 L 116.855469 193.261719 L 116.679688 193.453125 C 113.445312 193.539062 110.242188 193.625 107.070312 193.71875 C 106.277344 192.054688 105.390625 190.480469 104.378906 188.863281 C 104.355469 188.773438 104.253906 188.726562 104.140625 188.710938 L 103.347656 187.339844 C 103.289062 187.214844 103.09375 187.195312 102.851562 187.242188 C 102.902344 187.300781 102.953125 187.359375 102.996094 187.417969 C 103.003906 187.425781 103.011719 187.4375 103.015625 187.445312 C 103.105469 187.601562 103.074219 187.851562 102.722656 188.078125 C 102.550781 188.191406 102.351562 188.265625 102.167969 188.273438 C 101.996094 188.28125 101.835938 188.234375 101.738281 188.101562 C 101.722656 188.085938 101.640625 187.976562 101.601562 187.933594 C 101.554688 188.007812 101.53125 188.078125 101.539062 188.148438 L 101.539062 188.152344 C 101.542969 188.171875 101.550781 188.195312 101.5625 188.21875 C 101.570312 188.234375 102.316406 189.757812 102.316406 189.757812 C 102.300781 189.820312 102.300781 189.882812 102.316406 189.941406 C 102.320312 189.949219 102.320312 189.953125 102.324219 189.957031 C 102.328125 189.96875 102.332031 189.980469 102.332031 189.988281 C 102.332031 189.992188 102.335938 189.996094 102.335938 189.996094 C 102.851562 191.320312 103.320312 192.589844 103.875 193.816406 C 98.652344 193.976562 93.527344 194.152344 88.5 194.339844 C 86.777344 191.003906 83.421875 184.507812 83.046875 183.777344 C 82.539062 182.792969 84.128906 181.339844 82.953125 179.0625 C 82.402344 177.992188 81.070312 176.8125 79.957031 176.734375 L 81.121094 178.988281 C 81.546875 179.816406 81.339844 180.585938 80.3125 181.117188 C 79.289062 181.644531 78.542969 181.371094 78.113281 180.542969 L 77.261719 178.902344 C 76.679688 179.855469 76.558594 181.011719 77.109375 182.078125 C 78.289062 184.359375 80.394531 183.902344 80.902344 184.882812 C 81.242188 185.546875 84.035156 190.953125 85.839844 194.441406 C 81.175781 194.621094 76.605469 194.816406 72.136719 195.019531 L 65.875 179.480469 L 66.332031 177.832031 L 61.175781 179.910156 L 62.648438 180.78125 L 68.453125 195.191406 C 62.34375 195.484375 56.425781 195.796875 50.714844 196.132812 C 49.824219 194.703125 48.796875 192.957031 48.5 192.027344 C 47.796875 189.816406 50.191406 186.867188 50.191406 186.867188 L 50.121094 186.648438 L 41.96875 189.238281 L 42.035156 189.457031 C 42.035156 189.457031 45.695312 190.488281 46.394531 192.699219 C 46.632812 193.457031 46.792969 194.933594 46.894531 196.363281 C 42.679688 196.621094 38.582031 196.890625 34.609375 197.171875 L 33.273438 195.074219 C 33.273438 195.074219 32.074219 194.21875 31.457031 193.269531 C 31.238281 192.929688 31.285156 191.910156 31.285156 191.910156 L 30.726562 191.019531 L 30.003906 191.449219 L 26.203125 185.109375 L 26.226562 184.625 L 25.332031 182.988281 L 24.761719 183.332031 L 24.714844 183.355469 L 24.148438 183.699219 L 25.167969 185.257812 L 25.609375 185.464844 L 29.410156 191.804688 L 28.691406 192.238281 L 29.214844 193.148438 C 29.214844 193.148438 30.136719 193.585938 30.335938 193.941406 C 30.882812 194.9375 31.074219 196.394531 31.074219 196.394531 L 31.628906 197.382812 C 19.84375 198.242188 9.242188 199.199219 0.0390625 200.238281 L 374.960938 200.238281 Z M 126.421875 192.496094 C 126.851562 192.054688 127.589844 192.097656 128.074219 192.589844 C 128.242188 192.761719 128.351562 192.960938 128.414062 193.171875 C 127.515625 193.191406 126.617188 193.210938 125.71875 193.230469 Z M 124.972656 182.433594 C 125.101562 182.367188 125.257812 182.417969 125.328125 182.542969 C 125.394531 182.667969 125.34375 182.828125 125.21875 182.898438 C 125.09375 182.964844 124.933594 182.917969 124.867188 182.789062 C 124.792969 182.664062 124.84375 182.503906 124.972656 182.433594 Z M 121.445312 185.351562 C 121.574219 185.285156 121.734375 185.332031 121.800781 185.460938 C 121.871094 185.585938 121.820312 185.75 121.695312 185.816406 C 121.566406 185.882812 121.410156 185.835938 121.339844 185.710938 C 121.269531 185.582031 121.316406 185.421875 121.445312 185.351562 Z M 81.914062 184.136719 C 81.328125 184.441406 80.726562 184.488281 80.464844 184.277344 C 80.78125 184.410156 81.328125 184.335938 81.875 184.054688 C 82.414062 183.777344 82.796875 183.371094 82.871094 183.035156 C 82.890625 183.375 82.507812 183.832031 81.914062 184.136719 Z M 93.84375 170.410156 C 93.449219 169.703125 92.792969 169.9375 92.855469 170.761719 C 93.191406 175.109375 93.515625 179.429688 94.324219 183.660156 C 94.722656 185.726562 96.800781 187.257812 98.082031 186.679688 C 97.984375 186.554688 97.882812 186.40625 97.78125 186.242188 C 97.398438 185.609375 97.53125 185.128906 97.660156 184.664062 C 97.699219 184.515625 97.742188 184.359375 97.765625 184.199219 L 93.773438 171.609375 L 97.980469 183.984375 C 98.007812 183.988281 98.039062 183.992188 98.0625 184.003906 C 98.628906 184.296875 98.765625 184.808594 98.882812 185.257812 C 98.914062 185.371094 98.945312 185.484375 98.980469 185.589844 C 99.589844 184.203125 100.027344 181.613281 99.191406 179.832031 C 97.601562 176.453125 95.710938 173.753906 93.84375 170.410156 Z M 121.554688 185.632812 L 121.609375 185.734375 L 121.675781 185.703125 L 121.621094 185.601562 L 121.722656 185.546875 L 121.6875 185.480469 L 121.582031 185.535156 L 121.527344 185.429688 L 121.464844 185.46875 L 121.519531 185.570312 L 121.417969 185.625 L 121.449219 185.6875 Z M 121.554688 185.632812 " fill-opacity="1" fill-rule="nonzero"/></g></svg>