<svg xmlns="http://www.w3.org/2000/svg" xmlns:xlink="http://www.w3.org/1999/xlink" width="105" zoomAndPan="magnify" viewBox="0 0 78.75 30.000001" height="40" preserveAspectRatio="xMidYMid meet" version="1.0"><defs><g/><clipPath id="aecb6e848a"><path d="M 4.050781 0 L 71.550781 0 L 71.550781 21.773438 L 4.050781 21.773438 Z M 4.050781 0 " clip-rule="nonzero"/></clipPath></defs><g fill="#ffffff" fill-opacity="1"><g transform="translate(4.012572, 27.792988)"><g><path d="M 1.507812 -0.964844 L 1.507812 -4.347656 L 0.398438 -4.347656 L 0.398438 0 L 2.890625 0 L 2.890625 -0.964844 Z M 1.507812 -0.964844 "/></g></g></g><g fill="#ffffff" fill-opacity="1"><g transform="translate(7.176789, 27.792988)"><g><path d="M 2.238281 0.0585938 C 3.28125 0.0585938 4.101562 -0.574219 4.101562 -1.382812 L 4.101562 -4.347656 L 2.992188 -4.347656 L 2.992188 -1.59375 C 2.992188 -1.210938 2.660156 -0.90625 2.238281 -0.90625 C 1.820312 -0.90625 1.484375 -1.210938 1.484375 -1.59375 L 1.484375 -4.347656 L 0.375 -4.347656 L 0.375 -1.382812 C 0.375 -0.574219 1.195312 0.0585938 2.238281 0.0585938 Z M 2.238281 0.0585938 "/></g></g></g><g fill="#ffffff" fill-opacity="1"><g transform="translate(11.928187, 27.792988)"><g><path d="M 1.507812 -0.964844 L 1.507812 -4.347656 L 0.398438 -4.347656 L 0.398438 0 L 2.890625 0 L 2.890625 -0.964844 Z M 1.507812 -0.964844 "/></g></g></g><g fill="#ffffff" fill-opacity="1"><g transform="translate(15.092405, 27.792988)"><g><path d="M 0.433594 0 L 1.542969 0 L 1.542969 -4.347656 L 0.433594 -4.347656 Z M 0.433594 0 "/></g></g></g><g fill="#ffffff" fill-opacity="1"><g transform="translate(17.336201, 27.792988)"><g/></g></g><g fill="#ffffff" fill-opacity="1"><g transform="translate(19.348077, 27.792988)"><g><path d="M 2.480469 0.0585938 C 3.339844 0.0585938 4.09375 -0.433594 4.464844 -1.160156 L 3.507812 -1.644531 C 3.320312 -1.269531 2.941406 -1.027344 2.480469 -1.027344 C 1.820312 -1.027344 1.328125 -1.515625 1.328125 -2.175781 C 1.328125 -2.832031 1.820312 -3.320312 2.480469 -3.320312 C 2.941406 -3.320312 3.320312 -3.082031 3.507812 -2.703125 L 4.464844 -3.1875 C 4.09375 -3.914062 3.339844 -4.40625 2.480469 -4.40625 C 1.238281 -4.40625 0.246094 -3.40625 0.246094 -2.175781 C 0.246094 -0.941406 1.238281 0.0585938 2.480469 0.0585938 Z M 2.480469 0.0585938 "/></g></g></g><g fill="#ffffff" fill-opacity="1"><g transform="translate(24.258917, 27.792988)"><g><path d="M 2.480469 0.0585938 C 3.710938 0.0585938 4.710938 -0.941406 4.710938 -2.175781 C 4.710938 -3.40625 3.710938 -4.40625 2.480469 -4.40625 C 1.238281 -4.40625 0.246094 -3.40625 0.246094 -2.175781 C 0.246094 -0.941406 1.238281 0.0585938 2.480469 0.0585938 Z M 2.480469 -1.027344 C 1.820312 -1.027344 1.328125 -1.515625 1.328125 -2.175781 C 1.328125 -2.832031 1.820312 -3.320312 2.480469 -3.320312 C 3.128906 -3.320312 3.625 -2.832031 3.625 -2.175781 C 3.625 -1.515625 3.128906 -1.027344 2.480469 -1.027344 Z M 2.480469 -1.027344 "/></g></g></g><g fill="#ffffff" fill-opacity="1"><g transform="translate(29.481395, 27.792988)"><g><path d="M 3.523438 -4.347656 L 3.523438 -1.6875 L 1.558594 -4.347656 L 0.398438 -4.347656 L 0.398438 0 L 1.507812 0 L 1.507812 -2.667969 L 3.464844 0 L 4.632812 0 L 4.632812 -4.347656 Z M 3.523438 -4.347656 "/></g></g></g><g fill="#ffffff" fill-opacity="1"><g transform="translate(34.783598, 27.792988)"><g><path d="M 1.820312 0.0585938 C 2.652344 0.0585938 3.371094 -0.425781 3.371094 -1.261719 C 3.371094 -2.914062 1.398438 -2.5 1.398438 -3.160156 C 1.398438 -3.347656 1.542969 -3.433594 1.71875 -3.433594 C 1.933594 -3.433594 2.175781 -3.304688 2.40625 -3.058594 L 3.128906 -3.761719 C 2.789062 -4.160156 2.277344 -4.40625 1.730469 -4.40625 C 1.042969 -4.40625 0.28125 -4.007812 0.28125 -3.082031 C 0.28125 -1.574219 2.261719 -1.933594 2.261719 -1.277344 C 2.261719 -1.101562 2.117188 -0.976562 1.832031 -0.976562 C 1.457031 -0.976562 1.152344 -1.179688 1 -1.507812 L 0.09375 -0.941406 C 0.382812 -0.390625 1.023438 0.0585938 1.820312 0.0585938 Z M 1.820312 0.0585938 "/></g></g></g><g fill="#ffffff" fill-opacity="1"><g transform="translate(38.585586, 27.792988)"><g><path d="M 3.167969 -4.347656 L -0.0664062 -4.347656 L -0.0664062 -3.382812 L 1 -3.382812 L 1 0 L 2.101562 0 L 2.101562 -3.382812 L 3.167969 -3.382812 Z M 3.167969 -4.347656 "/></g></g></g><g fill="#ffffff" fill-opacity="1"><g transform="translate(41.959977, 27.792988)"><g><path d="M 2.820312 -1.726562 C 3.320312 -1.898438 3.667969 -2.382812 3.667969 -2.980469 C 3.667969 -3.730469 3.109375 -4.347656 2.332031 -4.347656 L 0.398438 -4.347656 L 0.398438 0 L 1.507812 0 L 1.507812 -1.59375 L 1.761719 -1.59375 L 2.777344 0 L 4.023438 0 Z M 2.152344 -2.484375 L 1.507812 -2.484375 L 1.507812 -3.382812 L 2.152344 -3.382812 C 2.414062 -3.382812 2.601562 -3.195312 2.601562 -2.933594 C 2.601562 -2.675781 2.414062 -2.484375 2.152344 -2.484375 Z M 2.152344 -2.484375 "/></g></g></g><g fill="#ffffff" fill-opacity="1"><g transform="translate(46.189565, 27.792988)"><g><path d="M 2.238281 0.0585938 C 3.28125 0.0585938 4.101562 -0.574219 4.101562 -1.382812 L 4.101562 -4.347656 L 2.992188 -4.347656 L 2.992188 -1.59375 C 2.992188 -1.210938 2.660156 -0.90625 2.238281 -0.90625 C 1.820312 -0.90625 1.484375 -1.210938 1.484375 -1.59375 L 1.484375 -4.347656 L 0.375 -4.347656 L 0.375 -1.382812 C 0.375 -0.574219 1.195312 0.0585938 2.238281 0.0585938 Z M 2.238281 0.0585938 "/></g></g></g><g fill="#ffffff" fill-opacity="1"><g transform="translate(50.940964, 27.792988)"><g><path d="M 2.480469 0.0585938 C 3.339844 0.0585938 4.09375 -0.433594 4.464844 -1.160156 L 3.507812 -1.644531 C 3.320312 -1.269531 2.941406 -1.027344 2.480469 -1.027344 C 1.820312 -1.027344 1.328125 -1.515625 1.328125 -2.175781 C 1.328125 -2.832031 1.820312 -3.320312 2.480469 -3.320312 C 2.941406 -3.320312 3.320312 -3.082031 3.507812 -2.703125 L 4.464844 -3.1875 C 4.09375 -3.914062 3.339844 -4.40625 2.480469 -4.40625 C 1.238281 -4.40625 0.246094 -3.40625 0.246094 -2.175781 C 0.246094 -0.941406 1.238281 0.0585938 2.480469 0.0585938 Z M 2.480469 0.0585938 "/></g></g></g><g fill="#ffffff" fill-opacity="1"><g transform="translate(55.851806, 27.792988)"><g><path d="M 3.167969 -4.347656 L -0.0664062 -4.347656 L -0.0664062 -3.382812 L 1 -3.382812 L 1 0 L 2.101562 0 L 2.101562 -3.382812 L 3.167969 -3.382812 Z M 3.167969 -4.347656 "/></g></g></g><g fill="#ffffff" fill-opacity="1"><g transform="translate(59.226197, 27.792988)"><g><path d="M 0.433594 0 L 1.542969 0 L 1.542969 -4.347656 L 0.433594 -4.347656 Z M 0.433594 0 "/></g></g></g><g fill="#ffffff" fill-opacity="1"><g transform="translate(61.469995, 27.792988)"><g><path d="M 2.480469 0.0585938 C 3.710938 0.0585938 4.710938 -0.941406 4.710938 -2.175781 C 4.710938 -3.40625 3.710938 -4.40625 2.480469 -4.40625 C 1.238281 -4.40625 0.246094 -3.40625 0.246094 -2.175781 C 0.246094 -0.941406 1.238281 0.0585938 2.480469 0.0585938 Z M 2.480469 -1.027344 C 1.820312 -1.027344 1.328125 -1.515625 1.328125 -2.175781 C 1.328125 -2.832031 1.820312 -3.320312 2.480469 -3.320312 C 3.128906 -3.320312 3.625 -2.832031 3.625 -2.175781 C 3.625 -1.515625 3.128906 -1.027344 2.480469 -1.027344 Z M 2.480469 -1.027344 "/></g></g></g><g fill="#ffffff" fill-opacity="1"><g transform="translate(66.692475, 27.792988)"><g><path d="M 3.523438 -4.347656 L 3.523438 -1.6875 L 1.558594 -4.347656 L 0.398438 -4.347656 L 0.398438 0 L 1.507812 0 L 1.507812 -2.667969 L 3.464844 0 L 4.632812 0 L 4.632812 -4.347656 Z M 3.523438 -4.347656 "/></g></g></g><g clip-path="url(#aecb6e848a)"><path fill="#ea580b" d="M 26.074219 7.921875 L 24.683594 8.125 L 24.683594 9.316406 L 26.074219 9.148438 Z M 23.242188 10.8125 L 24.453125 10.746094 L 24.453125 9.5625 L 23.242188 9.710938 Z M 24.453125 8.160156 L 23.242188 8.339844 L 23.242188 9.496094 L 24.453125 9.347656 Z M 24.683594 10.734375 L 26.074219 10.660156 L 26.074219 9.363281 L 24.683594 9.535156 Z M 43.679688 9.523438 L 45.191406 9.441406 L 45.191406 7.960938 L 43.679688 8.148438 Z M 45.480469 9.425781 L 47.21875 9.335938 L 47.21875 7.714844 L 45.480469 7.925781 Z M 47.21875 5.910156 L 45.480469 6.167969 L 45.480469 7.65625 L 47.21875 7.441406 Z M 45.191406 6.207031 L 43.679688 6.433594 L 43.679688 7.875 L 45.191406 7.691406 Z M 43.144531 19.300781 C 44.40625 19.15625 45.675781 19.03125 46.941406 18.925781 L 46.941406 12.4375 L 43.144531 12.917969 Z M 26.613281 18.535156 L 26.625 18.554688 L 26.636719 18.546875 L 26.625 18.527344 L 26.644531 18.519531 L 26.636719 18.507812 L 26.621094 18.515625 L 26.609375 18.5 L 26.597656 18.503906 L 26.609375 18.523438 L 26.589844 18.53125 L 26.59375 18.542969 Z M 12.871094 18.515625 L 12.574219 17.574219 L 12.507812 17.59375 L 12.597656 17.890625 L 12.492188 17.597656 L 12.402344 17.625 L 12.585938 18.230469 L 12.375 17.636719 L 12.320312 17.652344 L 12.4375 18.039062 L 12.300781 17.660156 L 12.0625 17.734375 L 12.144531 18 L 12.050781 17.738281 L 11.992188 17.757812 L 12.109375 18.140625 L 11.972656 17.761719 L 11.695312 17.851562 L 11.800781 18.207031 L 11.671875 17.859375 L 11.613281 17.878906 L 11.726562 18.261719 L 11.589844 17.882812 L 11.375 17.953125 L 11.496094 18.363281 L 11.351562 17.960938 L 11.226562 18 L 11.320312 18.3125 L 11.207031 18.003906 L 11.101562 18.039062 L 11.402344 18.984375 Z M 16.179688 15.691406 L 15.769531 14.679688 L 12.417969 16.03125 L 12.824219 17.042969 Z M 16.195312 15.183594 L 16.464844 15.855469 L 15.398438 17.492188 C 15.382812 17.515625 15.382812 17.546875 15.390625 17.574219 L 15.492188 17.816406 L 15.652344 17.753906 L 15.570312 17.550781 L 16.636719 15.910156 C 16.652344 15.886719 16.65625 15.859375 16.644531 15.832031 L 16.324219 15.035156 C 16.308594 14.992188 16.257812 14.96875 16.210938 14.988281 L 15.980469 15.082031 L 16.046875 15.242188 Z M 11.621094 19.671875 L 13.089844 19.203125 L 12.882812 18.550781 L 11.414062 19.019531 Z M 35.769531 14.214844 C 36.558594 13.972656 37.222656 15.058594 37.222656 15.058594 L 37.394531 14.878906 C 37.394531 14.878906 36.011719 12.675781 34.949219 12.945312 C 34.035156 13.175781 33.539062 13.378906 33.539062 13.378906 L 33.351562 13.4375 C 33.277344 13.664062 33.078125 13.859375 32.8125 13.941406 C 32.542969 14.023438 32.269531 13.972656 32.082031 13.828125 L 31.433594 14.027344 L 31.921875 15.601562 L 32.503906 15.421875 C 32.503906 15.421875 32.683594 15.191406 33.144531 15.023438 C 33.550781 14.878906 34.09375 15.097656 34.203125 15.453125 C 34.207031 15.460938 34.210938 15.472656 34.210938 15.480469 L 35.425781 15.109375 C 35.378906 14.925781 35.289062 14.363281 35.769531 14.214844 Z M 40.515625 16.796875 C 40.488281 16.800781 40.460938 16.804688 40.433594 16.816406 L 40.191406 16.867188 C 40.136719 16.828125 40.066406 16.804688 39.988281 16.804688 C 39.910156 16.804688 39.835938 16.828125 39.785156 16.867188 L 39.539062 16.816406 C 39.515625 16.804688 39.488281 16.800781 39.457031 16.796875 L 39.453125 16.796875 C 39.449219 16.796875 39.441406 16.796875 39.4375 16.796875 C 39.289062 16.796875 39.171875 16.898438 39.171875 17.027344 C 39.171875 17.152344 39.292969 17.253906 39.4375 17.253906 C 39.464844 17.253906 39.488281 17.25 39.515625 17.242188 L 39.800781 17.207031 C 39.816406 17.21875 39.832031 17.226562 39.851562 17.234375 L 39.851562 17.5 L 39.742188 17.5 C 39.71875 17.5 39.703125 17.515625 39.703125 17.539062 C 39.703125 17.558594 39.71875 17.578125 39.742188 17.578125 L 40.234375 17.578125 C 40.253906 17.578125 40.273438 17.558594 40.273438 17.539062 C 40.273438 17.515625 40.253906 17.5 40.234375 17.5 L 40.125 17.5 L 40.125 17.234375 C 40.144531 17.226562 40.160156 17.21875 40.175781 17.207031 L 40.460938 17.242188 C 40.484375 17.25 40.511719 17.253906 40.539062 17.253906 C 40.683594 17.253906 40.800781 17.152344 40.800781 17.027344 C 40.800781 16.898438 40.683594 16.796875 40.539062 16.796875 C 40.53125 16.796875 40.527344 16.796875 40.519531 16.796875 Z M 39.625 17.609375 C 39.585938 17.609375 39.554688 17.640625 39.554688 17.679688 C 39.554688 17.71875 39.585938 17.75 39.625 17.75 L 40.335938 17.75 C 40.375 17.75 40.40625 17.71875 40.40625 17.679688 C 40.40625 17.640625 40.375 17.609375 40.335938 17.609375 Z M 21.726562 18.796875 C 21.707031 18.929688 21.636719 19.011719 21.722656 19.152344 C 21.882812 19.417969 22.007812 19.367188 22.316406 19.375 C 22.371094 19.375 22.402344 19.441406 22.4375 19.480469 C 22.480469 19.535156 22.636719 19.449219 22.609375 19.402344 C 22.53125 19.304688 22.441406 19.222656 22.328125 19.214844 C 22.214844 19.203125 22.066406 19.269531 21.972656 19.207031 C 21.8125 19.097656 21.898438 18.886719 21.726562 18.796875 Z M 71.675781 21.691406 C 70.804688 21.589844 69.859375 21.496094 68.855469 21.40625 L 68.410156 11.644531 L 61.894531 4.90625 L 59.652344 4.25 L 59.652344 2.777344 L 57.71875 1.582031 L 56.59375 1.882812 L 56.59375 3.351562 L 45.183594 0 L 41.859375 4.265625 L 35.214844 5.109375 L 29.601562 10.230469 L 34 5.152344 L 25.8125 1.769531 L 18.964844 12.132812 L 25.878906 3.621094 L 28.933594 11.558594 L 29.082031 14.824219 C 29.101562 14.644531 29.277344 12.84375 29.367188 11.90625 L 38.625 11.351562 L 38.851562 16.171875 C 38.886719 15.847656 39.234375 12.246094 39.339844 11.1875 L 45.519531 2.175781 L 52.140625 11.265625 L 52.140625 20.507812 C 49.042969 20.417969 45.769531 20.359375 42.371094 20.328125 L 42.371094 18.910156 C 42.371094 18.542969 42.070312 18.242188 41.699219 18.242188 L 41.4375 18.242188 L 41.4375 18.078125 L 41.15625 18.078125 L 41.078125 18.191406 L 41.078125 18.195312 L 41.070312 18.195312 L 41.070312 18.242188 L 40.488281 18.242188 C 40.453125 18.183594 40.40625 18.128906 40.351562 18.085938 L 40.351562 17.789062 L 39.636719 17.789062 L 39.636719 18.085938 C 39.578125 18.128906 39.53125 18.183594 39.5 18.242188 L 39.164062 18.242188 C 38.796875 18.242188 38.496094 18.542969 38.496094 18.910156 L 38.496094 19.207031 L 38.476562 19.207031 C 38.4375 19.207031 38.402344 19.238281 38.402344 19.28125 C 38.402344 19.320312 38.4375 19.355469 38.476562 19.355469 L 38.949219 19.355469 C 38.988281 19.355469 39.023438 19.320312 39.023438 19.28125 C 39.023438 19.238281 38.992188 19.207031 38.949219 19.207031 L 38.949219 18.910156 C 38.949219 18.792969 39.046875 18.695312 39.164062 18.695312 L 39.5 18.695312 C 39.59375 18.859375 39.777344 18.972656 39.992188 18.972656 C 40.207031 18.972656 40.390625 18.859375 40.484375 18.695312 L 41.070312 18.695312 L 41.070312 18.75 L 41.15625 18.875 L 41.160156 18.867188 L 41.4375 18.867188 L 41.4375 18.699219 L 41.699219 18.699219 C 41.816406 18.699219 41.914062 18.792969 41.914062 18.910156 L 41.914062 20.328125 C 40.585938 20.316406 39.234375 20.3125 37.871094 20.3125 C 37.65625 20.3125 37.445312 20.3125 37.230469 20.3125 L 35.449219 15.191406 L 34.238281 15.5625 L 34.265625 15.660156 L 35.515625 20.316406 C 34.359375 20.320312 33.21875 20.328125 32.089844 20.34375 C 32.070312 20.152344 32.011719 19.941406 31.925781 19.765625 C 31.882812 19.679688 31.753906 19.636719 31.675781 19.585938 C 31.660156 19.546875 31.648438 19.511719 31.648438 19.484375 C 31.644531 18.933594 31.5 18.460938 31.359375 18.023438 C 31.296875 17.835938 31.46875 17.761719 31.707031 17.753906 C 31.992188 17.746094 32.226562 17.683594 32.449219 17.492188 C 32.507812 17.453125 32.519531 17.453125 32.492188 17.390625 C 32.519531 17.378906 32.546875 17.316406 32.542969 17.285156 C 32.714844 17.179688 32.613281 16.667969 32.53125 16.582031 C 32.511719 16.5625 32.496094 16.585938 32.496094 16.558594 C 32.488281 16.523438 32.476562 16.496094 32.441406 16.472656 C 32.492188 16.457031 32.433594 16.386719 32.378906 16.378906 C 32.105469 16.332031 31.824219 16.339844 31.550781 16.320312 C 31.472656 16.300781 31.328125 16.242188 31.261719 16.277344 C 31.160156 16.328125 31.066406 16.363281 30.972656 16.382812 C 30.96875 16.367188 30.898438 16.363281 30.796875 16.367188 C 30.789062 16.355469 30.777344 16.34375 30.757812 16.347656 L 30.703125 16.351562 C 30.691406 16.351562 30.6875 16.367188 30.683594 16.378906 C 30.578125 16.394531 30.503906 16.414062 30.503906 16.429688 C 30.410156 16.433594 30.316406 16.433594 30.214844 16.4375 C 30.011719 16.359375 29.945312 16.425781 29.796875 16.507812 L 29.585938 16.558594 L 29.359375 16.605469 C 29.363281 16.710938 29.367188 16.820312 29.375 16.925781 L 29.355469 16.925781 C 29.347656 16.839844 29.335938 16.753906 29.320312 16.667969 L 28.777344 16.699219 C 28.703125 16.703125 28.632812 16.722656 28.566406 16.753906 L 28.257812 16.886719 L 28.265625 16.972656 L 28.21875 16.980469 C 28.214844 17.003906 28.214844 17.027344 28.214844 17.050781 L 28.019531 17.105469 L 28.027344 17.15625 L 27.609375 17.183594 L 27.5625 17.207031 L 27.613281 17.222656 L 28.027344 17.195312 L 28.03125 17.234375 L 28.234375 17.292969 C 28.234375 17.304688 28.238281 17.3125 28.238281 17.324219 L 28.292969 17.328125 L 28.300781 17.410156 L 28.609375 17.511719 C 28.683594 17.535156 28.761719 17.546875 28.832031 17.542969 L 29.378906 17.511719 C 29.378906 17.421875 29.378906 17.328125 29.375 17.238281 L 29.394531 17.238281 C 29.402344 17.34375 29.410156 17.449219 29.421875 17.554688 L 29.664062 17.574219 L 29.867188 17.605469 L 29.867188 17.59375 C 29.96875 17.617188 30.03125 17.625 30.113281 17.703125 C 30.210938 17.703125 30.28125 17.703125 30.328125 17.714844 C 30.347656 17.71875 30.359375 17.726562 30.375 17.738281 L 30.136719 17.730469 C 30.097656 17.730469 30.089844 17.734375 30.105469 17.773438 C 30.160156 17.921875 30.160156 18.050781 30.109375 18.179688 C 30.101562 18.199219 30.121094 18.210938 30.140625 18.214844 L 30.339844 18.21875 C 30.300781 18.234375 30.246094 18.257812 30.28125 18.289062 C 30.320312 18.328125 30.496094 18.296875 30.507812 18.390625 C 30.546875 18.742188 30.792969 19.046875 30.816406 19.394531 C 30.8125 19.503906 30.777344 19.574219 30.726562 19.632812 C 30.683594 19.675781 30.636719 19.703125 30.582031 19.710938 L 30.585938 19.777344 C 30.402344 19.8125 30.222656 19.875 30.097656 19.984375 C 30.0625 20.011719 30.070312 20.070312 30.0625 20.113281 L 29.859375 20.371094 C 29.148438 20.382812 28.445312 20.394531 27.746094 20.410156 L 26.652344 18.351562 L 25.890625 18.972656 L 25.445312 20.460938 C 25.417969 20.460938 25.390625 20.460938 25.363281 20.460938 L 25.824219 18.929688 L 26.613281 18.28125 L 23.105469 11.691406 L 22.480469 12.023438 L 22.417969 12.09375 L 22.523438 12.113281 L 22.523438 12.121094 L 22.453125 12.199219 L 22.554688 12.222656 L 22.558594 12.226562 L 22.488281 12.304688 L 22.585938 12.328125 L 22.589844 12.335938 L 22.519531 12.410156 L 22.621094 12.433594 L 22.625 12.441406 L 22.554688 12.519531 L 22.65625 12.539062 L 22.65625 12.546875 L 22.585938 12.625 L 22.6875 12.648438 L 22.691406 12.65625 L 22.621094 12.730469 L 22.722656 12.753906 L 22.722656 12.761719 L 22.652344 12.839844 L 22.753906 12.859375 L 22.757812 12.867188 L 22.6875 12.945312 L 22.789062 12.964844 L 22.792969 12.972656 L 22.722656 13.050781 L 22.824219 13.074219 L 22.824219 13.082031 L 22.753906 13.15625 L 22.855469 13.179688 L 22.859375 13.1875 L 22.789062 13.265625 L 22.890625 13.285156 L 22.890625 13.292969 L 22.820312 13.371094 L 22.921875 13.394531 L 22.925781 13.402344 L 22.855469 13.476562 L 22.957031 13.5 L 22.957031 13.507812 L 22.886719 13.585938 L 22.988281 13.605469 L 22.992188 13.613281 L 22.921875 13.691406 L 23.023438 13.710938 L 23.023438 13.722656 L 22.957031 13.796875 L 23.054688 13.820312 L 23.058594 13.828125 L 22.988281 13.902344 L 23.089844 13.925781 L 23.089844 13.933594 L 23.023438 14.011719 L 23.121094 14.03125 L 23.125 14.039062 L 23.054688 14.117188 L 23.15625 14.136719 L 23.160156 14.148438 L 23.089844 14.222656 L 23.191406 14.246094 L 23.191406 14.253906 L 23.125 14.328125 L 23.222656 14.351562 L 23.226562 14.359375 L 23.15625 14.433594 L 23.257812 14.457031 L 23.257812 14.464844 L 23.191406 14.539062 L 23.289062 14.5625 L 23.292969 14.574219 L 23.222656 14.648438 L 23.324219 14.667969 L 23.328125 14.679688 L 23.257812 14.753906 L 23.355469 14.777344 L 23.359375 14.785156 L 23.292969 14.859375 L 23.390625 14.882812 L 23.394531 14.890625 L 23.324219 14.96875 L 23.425781 14.988281 L 23.429688 15 L 23.359375 15.074219 L 23.457031 15.09375 L 23.460938 15.105469 L 23.390625 15.179688 L 23.492188 15.203125 L 23.496094 15.210938 L 23.425781 15.285156 L 23.523438 15.308594 L 23.527344 15.316406 L 23.460938 15.390625 L 23.558594 15.414062 L 23.5625 15.425781 L 23.492188 15.5 L 23.589844 15.519531 L 23.59375 15.53125 L 23.527344 15.605469 L 23.625 15.628906 L 23.628906 15.636719 L 23.558594 15.710938 L 23.65625 15.734375 L 23.660156 15.746094 L 23.59375 15.820312 L 23.691406 15.839844 L 23.695312 15.851562 L 23.625 15.925781 L 23.722656 15.945312 L 23.726562 15.957031 L 23.660156 16.03125 L 23.757812 16.054688 L 23.761719 16.0625 L 23.695312 16.136719 L 23.789062 16.160156 L 23.792969 16.171875 L 23.726562 16.246094 L 23.824219 16.265625 L 23.828125 16.277344 L 23.757812 16.351562 L 23.855469 16.371094 L 23.859375 16.382812 L 23.792969 16.457031 L 23.890625 16.480469 L 23.894531 16.492188 L 23.828125 16.5625 L 23.925781 16.585938 L 23.929688 16.597656 L 23.859375 16.671875 L 23.957031 16.691406 L 23.960938 16.703125 L 23.894531 16.777344 L 23.992188 16.800781 L 23.996094 16.8125 L 23.925781 16.882812 L 24.023438 16.90625 L 24.027344 16.917969 L 23.960938 16.992188 L 24.058594 17.011719 L 24.0625 17.023438 L 23.992188 17.097656 L 24.089844 17.117188 L 24.09375 17.128906 L 24.027344 17.203125 L 24.125 17.226562 L 24.128906 17.238281 L 24.0625 17.308594 L 24.15625 17.332031 L 24.160156 17.34375 L 24.09375 17.417969 L 24.191406 17.4375 L 24.195312 17.449219 L 24.128906 17.523438 L 24.222656 17.546875 L 24.226562 17.558594 L 24.160156 17.628906 L 24.257812 17.652344 L 24.261719 17.664062 L 24.195312 17.738281 L 24.289062 17.757812 L 24.292969 17.769531 L 24.226562 17.84375 L 24.324219 17.863281 L 24.328125 17.878906 L 24.261719 17.949219 L 24.355469 17.972656 L 24.363281 17.984375 L 24.296875 18.058594 L 24.390625 18.078125 L 24.394531 18.089844 L 24.328125 18.164062 L 24.425781 18.183594 L 24.429688 18.199219 L 24.363281 18.269531 L 24.457031 18.289062 L 24.460938 18.304688 L 24.394531 18.375 L 24.492188 18.398438 L 24.496094 18.410156 L 24.429688 18.484375 L 24.523438 18.503906 L 24.527344 18.515625 L 24.464844 18.589844 L 24.558594 18.609375 L 24.5625 18.625 L 24.496094 18.695312 L 24.589844 18.714844 L 24.59375 18.730469 L 24.53125 18.800781 L 24.625 18.824219 L 24.628906 18.835938 L 24.5625 18.910156 L 24.65625 18.929688 L 24.664062 18.945312 L 24.597656 19.015625 L 24.691406 19.035156 L 24.695312 19.050781 L 24.628906 19.121094 L 24.726562 19.140625 L 24.730469 19.15625 L 24.664062 19.226562 L 24.757812 19.25 L 24.761719 19.261719 L 24.699219 19.335938 L 24.792969 19.355469 L 24.796875 19.371094 L 24.730469 19.441406 L 24.824219 19.460938 L 24.832031 19.476562 L 24.765625 19.546875 L 24.859375 19.566406 L 24.863281 19.582031 L 24.796875 19.652344 L 24.890625 19.675781 L 24.898438 19.6875 L 24.832031 19.761719 L 24.925781 19.78125 L 24.929688 19.796875 L 24.867188 19.867188 L 24.960938 19.886719 L 24.964844 19.902344 L 24.898438 19.972656 L 24.992188 19.992188 L 24.996094 20.007812 L 24.933594 20.078125 L 25.027344 20.101562 L 25.03125 20.117188 L 24.964844 20.1875 L 25.058594 20.207031 L 25.0625 20.222656 L 25 20.292969 L 25.09375 20.3125 L 25.097656 20.328125 L 25.035156 20.398438 L 25.125 20.417969 L 25.132812 20.4375 L 25.097656 20.472656 C 24.515625 20.484375 23.9375 20.5 23.367188 20.519531 C 23.222656 20.21875 23.0625 19.933594 22.878906 19.644531 C 22.875 19.625 22.859375 19.617188 22.839844 19.613281 L 22.695312 19.367188 C 22.683594 19.34375 22.648438 19.339844 22.605469 19.351562 C 22.613281 19.359375 22.625 19.371094 22.632812 19.382812 C 22.632812 19.382812 22.632812 19.386719 22.636719 19.386719 C 22.652344 19.414062 22.644531 19.460938 22.582031 19.5 C 22.550781 19.523438 22.515625 19.535156 22.480469 19.535156 C 22.453125 19.539062 22.421875 19.527344 22.40625 19.503906 C 22.402344 19.503906 22.386719 19.484375 22.378906 19.476562 C 22.371094 19.488281 22.367188 19.5 22.367188 19.515625 C 22.371094 19.519531 22.371094 19.523438 22.371094 19.527344 C 22.375 19.53125 22.507812 19.804688 22.507812 19.804688 C 22.507812 19.816406 22.507812 19.828125 22.507812 19.835938 C 22.511719 19.839844 22.511719 19.839844 22.511719 19.839844 C 22.511719 19.84375 22.511719 19.84375 22.511719 19.847656 C 22.605469 20.085938 22.691406 20.316406 22.789062 20.535156 C 21.847656 20.566406 20.925781 20.597656 20.019531 20.628906 C 19.707031 20.027344 19.101562 18.855469 19.035156 18.726562 C 18.941406 18.546875 19.230469 18.285156 19.015625 17.875 C 18.917969 17.683594 18.679688 17.46875 18.476562 17.457031 L 18.6875 17.863281 C 18.765625 18.011719 18.726562 18.148438 18.542969 18.246094 C 18.355469 18.339844 18.222656 18.292969 18.144531 18.140625 L 17.992188 17.847656 C 17.886719 18.019531 17.863281 18.226562 17.964844 18.417969 C 18.175781 18.832031 18.554688 18.746094 18.648438 18.925781 C 18.710938 19.042969 19.210938 20.019531 19.539062 20.648438 C 18.695312 20.679688 17.871094 20.714844 17.066406 20.753906 L 15.9375 17.949219 L 16.019531 17.652344 L 15.089844 18.027344 L 15.355469 18.183594 L 16.402344 20.785156 C 15.300781 20.835938 14.234375 20.894531 13.203125 20.953125 C 13.042969 20.695312 12.859375 20.378906 12.804688 20.214844 C 12.675781 19.816406 13.109375 19.28125 13.109375 19.28125 L 13.097656 19.242188 L 11.625 19.710938 L 11.636719 19.75 C 11.636719 19.75 12.296875 19.9375 12.425781 20.335938 C 12.46875 20.472656 12.496094 20.738281 12.515625 20.996094 C 11.753906 21.042969 11.015625 21.089844 10.300781 21.140625 L 10.058594 20.761719 C 10.058594 20.761719 9.84375 20.609375 9.730469 20.4375 C 9.691406 20.375 9.699219 20.191406 9.699219 20.191406 L 9.597656 20.03125 L 9.46875 20.109375 L 8.785156 18.964844 L 8.789062 18.878906 L 8.625 18.582031 L 8.523438 18.644531 L 8.519531 18.648438 L 8.515625 18.648438 L 8.414062 18.710938 L 8.597656 18.992188 L 8.675781 19.03125 L 9.363281 20.171875 L 9.234375 20.25 L 9.328125 20.414062 C 9.328125 20.414062 9.492188 20.496094 9.527344 20.558594 C 9.628906 20.738281 9.660156 21 9.660156 21 L 9.761719 21.179688 C 7.636719 21.335938 5.722656 21.507812 4.066406 21.695312 L 71.675781 21.695312 Z M 26.855469 20.296875 C 26.933594 20.21875 27.066406 20.226562 27.152344 20.316406 C 27.183594 20.34375 27.203125 20.382812 27.214844 20.417969 C 27.054688 20.421875 26.890625 20.425781 26.730469 20.429688 Z M 26.59375 18.484375 C 26.617188 18.472656 26.648438 18.480469 26.660156 18.503906 C 26.671875 18.527344 26.660156 18.554688 26.640625 18.566406 C 26.617188 18.578125 26.585938 18.570312 26.574219 18.546875 C 26.5625 18.523438 26.570312 18.496094 26.59375 18.484375 Z M 25.957031 19.011719 C 25.980469 18.996094 26.011719 19.007812 26.023438 19.027344 C 26.035156 19.050781 26.027344 19.082031 26.003906 19.09375 C 25.980469 19.105469 25.953125 19.097656 25.941406 19.074219 C 25.925781 19.050781 25.9375 19.023438 25.957031 19.011719 Z M 18.832031 18.789062 C 18.722656 18.84375 18.617188 18.855469 18.570312 18.816406 C 18.625 18.839844 18.722656 18.828125 18.824219 18.777344 C 18.921875 18.726562 18.988281 18.652344 19.003906 18.59375 C 19.007812 18.652344 18.9375 18.734375 18.832031 18.789062 Z M 20.980469 16.316406 C 20.910156 16.1875 20.792969 16.230469 20.804688 16.378906 C 20.863281 17.164062 20.921875 17.941406 21.066406 18.703125 C 21.140625 19.078125 21.515625 19.351562 21.746094 19.25 C 21.726562 19.226562 21.710938 19.199219 21.691406 19.171875 C 21.621094 19.054688 21.648438 18.96875 21.667969 18.886719 C 21.675781 18.859375 21.683594 18.832031 21.6875 18.800781 L 20.96875 16.53125 L 21.726562 18.761719 C 21.734375 18.761719 21.738281 18.765625 21.742188 18.765625 C 21.84375 18.820312 21.867188 18.910156 21.890625 18.992188 C 21.894531 19.011719 21.902344 19.035156 21.90625 19.050781 C 22.015625 18.800781 22.097656 18.335938 21.945312 18.015625 C 21.660156 17.40625 21.316406 16.917969 20.980469 16.316406 Z M 25.976562 19.058594 L 25.988281 19.078125 L 26 19.074219 L 25.988281 19.054688 L 26.007812 19.042969 L 26.003906 19.03125 L 25.984375 19.042969 L 25.972656 19.023438 L 25.960938 19.03125 L 25.972656 19.050781 L 25.953125 19.058594 L 25.960938 19.070312 Z M 25.976562 19.058594 " fill-opacity="1" fill-rule="nonzero"/></g></svg>