<svg xmlns="http://www.w3.org/2000/svg" xmlns:xlink="http://www.w3.org/1999/xlink" width="500" zoomAndPan="magnify" viewBox="0 0 375 374.999991" height="500" preserveAspectRatio="xMidYMid meet" version="1.0"><defs><g/><clipPath id="1658a970ee"><path d="M 24 190.550781 L 117.742188 190.550781 L 117.742188 258.800781 L 24 258.800781 Z M 24 190.550781 " clip-rule="nonzero"/></clipPath><clipPath id="d92ed8c58f"><path d="M 124.988281 201.070312 L 334.5 201.070312 L 334.5 248.414062 L 124.988281 248.414062 Z M 124.988281 201.070312 " clip-rule="nonzero"/></clipPath><clipPath id="e9e18e2861"><path d="M 322.390625 201.070312 L 334.5 213.179688 L 334.5 236.304688 L 322.390625 248.414062 L 137.097656 248.414062 L 124.988281 236.304688 L 124.988281 213.179688 L 137.097656 201.070312 Z M 322.390625 201.070312 " clip-rule="nonzero"/></clipPath><clipPath id="684c649695"><path d="M 125.007812 201.070312 L 334.238281 201.070312 L 334.238281 248.320312 L 125.007812 248.320312 Z M 125.007812 201.070312 " clip-rule="nonzero"/></clipPath><clipPath id="11436bb0aa"><path d="M 322.371094 201.070312 L 334.476562 213.175781 L 334.476562 236.296875 L 322.371094 248.402344 L 137.113281 248.402344 L 125.007812 236.296875 L 125.007812 213.175781 L 137.113281 201.070312 Z M 322.371094 201.070312 " clip-rule="nonzero"/></clipPath></defs><g clip-path="url(#1658a970ee)"><path fill="#000000" d="M 41.160156 190.550781 L 59.824219 206.773438 L 59.824219 207.996094 C 59.476562 208.167969 59.300781 208.34375 59.128906 208.515625 L 58.953125 208.34375 C 57.558594 206.949219 55.289062 206.949219 54.070312 208.34375 L 50.929688 211.308594 C 50.40625 212.007812 50.058594 212.703125 49.882812 213.578125 L 49.011719 213.402344 L 48.488281 210.261719 L 45.175781 210.085938 L 44.828125 206.773438 L 41.6875 206.425781 L 41.511719 203.109375 L 38.546875 202.585938 L 38.722656 199.621094 L 35.925781 199.097656 L 36.101562 196.304688 Z M 99.421875 248.460938 L 106.925781 236.25 L 108.84375 237.472656 L 101.339844 249.683594 Z M 101.863281 250.03125 L 109.367188 237.820312 C 112.507812 239.566406 116.519531 242.007812 117.914062 244.625 L 115.644531 248.113281 C 114.421875 246.714844 113.902344 246.367188 112.15625 245.324219 C 113.550781 246.71875 114.597656 248.113281 114.945312 249.511719 L 112.851562 252.648438 C 111.980469 252.128906 111.457031 251.777344 110.410156 251.429688 C 111.109375 252.128906 111.980469 252.824219 112.152344 253.871094 L 110.058594 257.1875 C 108.492188 254.046875 104.832031 251.953125 101.863281 250.03125 Z M 96.980469 236.601562 C 97.328125 236.601562 97.503906 236.773438 97.679688 236.773438 C 100.292969 237.820312 103.085938 237.121094 104.484375 235.554688 C 105.007812 235.03125 105.527344 235.378906 105.878906 235.554688 L 106.578125 235.902344 L 102.738281 242.007812 L 98.902344 248.113281 L 98.203125 247.765625 C 97.851562 247.414062 97.679688 246.890625 97.851562 246.019531 C 98.378906 244.101562 97.679688 241.660156 95.757812 239.914062 C 95.757812 239.914062 95.585938 239.742188 95.410156 239.566406 C 95.933594 239.21875 96.457031 238.519531 96.632812 237.648438 Z M 110.410156 217.589844 L 111.457031 217.9375 L 111.285156 217.066406 L 114.945312 213.925781 C 112.851562 213.230469 110.585938 213.230469 107.792969 214.273438 Z M 104.65625 221.601562 L 102.738281 219.160156 L 105.179688 217.238281 L 107.097656 219.679688 Z M 100.121094 218.984375 C 102.039062 217.066406 103.957031 215.148438 105.875 213.054688 L 111.109375 219.683594 L 114.074219 220.90625 C 115.296875 219.855469 116.6875 218.8125 117.910156 217.765625 C 117.910156 220.378906 116.515625 224.917969 113.726562 225.613281 C 112.507812 225.964844 110.410156 225.613281 108.144531 225.265625 C 105.875 224.742188 103.433594 224.21875 101.167969 223.871094 L 97.851562 224.742188 C 97.851562 224.566406 97.851562 224.21875 97.851562 223.871094 L 96.808594 219.859375 Z M 105.003906 222.472656 L 107.96875 220.03125 C 108.144531 219.855469 108.144531 219.679688 107.96875 219.332031 L 105.703125 216.367188 C 105.527344 216.191406 105.179688 216.191406 105.003906 216.367188 L 102.039062 218.808594 C 101.863281 218.980469 101.6875 219.160156 101.863281 219.332031 L 104.304688 222.296875 C 104.480469 222.644531 104.832031 222.644531 105.003906 222.472656 Z M 107.097656 196.132812 C 107.796875 198.398438 107.273438 201.191406 105.355469 203.109375 C 103.4375 205.203125 100.472656 205.726562 97.851562 205.03125 L 91.921875 211.308594 L 91.746094 211.308594 L 88.78125 208.34375 C 88.433594 207.820312 87.734375 207.472656 87.210938 207.296875 L 93.492188 200.84375 C 92.441406 198.226562 92.96875 195.261719 94.886719 193.167969 C 96.632812 191.246094 99.25 190.550781 101.691406 191.074219 L 100.992188 191.769531 L 97.503906 195.609375 L 98.027344 197.527344 L 98.726562 199.621094 L 100.820312 200.144531 L 102.914062 200.671875 L 106.398438 196.832031 Z M 50.058594 243.054688 L 39.417969 248.460938 C 38.546875 248.984375 38.546875 250.03125 39.070312 250.902344 C 39.59375 251.777344 40.640625 252.125 41.335938 251.777344 L 43.253906 254.742188 L 36.277344 258.929688 L 34.359375 255.789062 C 35.230469 255.441406 35.40625 254.21875 34.882812 253.347656 C 34.359375 252.476562 33.3125 252.128906 32.441406 252.648438 C 31.046875 250.035156 29.828125 247.941406 29.128906 246.195312 C 28.429688 244.625 28.257812 243.230469 28.082031 241.660156 C 28.082031 240.789062 28.082031 239.046875 28.605469 237.648438 C 29.476562 235.382812 30.875 233.464844 31.746094 234.160156 C 31.921875 234.511719 30.875 237.128906 31.921875 239.742188 C 32.617188 241.660156 35.058594 244.625 36.457031 243.753906 L 46.050781 237.300781 L 46.050781 237.648438 C 46.574219 239.566406 48.492188 240.613281 50.410156 240.265625 L 50.585938 240.089844 C 50.757812 240.441406 50.933594 240.789062 51.109375 240.960938 L 50.933594 241.136719 C 50.40625 241.660156 50.058594 242.355469 50.058594 243.054688 Z M 45.171875 223.34375 L 40.117188 222.820312 L 39.941406 224.738281 C 39.941406 225.785156 38.894531 226.65625 37.671875 226.65625 L 32.441406 226.132812 C 32.265625 226.132812 32.09375 225.960938 31.914062 225.960938 L 31.914062 226.308594 C 31.742188 227.003906 31.042969 227.53125 30.347656 227.53125 C 29.648438 227.355469 28.949219 226.832031 29.125 225.960938 L 29.300781 223.867188 L 24.9375 223.519531 C 24.414062 223.34375 24.066406 222.996094 24.066406 222.472656 C 24.242188 222.121094 24.589844 221.773438 24.9375 221.773438 L 29.472656 222.296875 L 29.648438 220.726562 L 29.820312 218.984375 L 25.285156 218.632812 C 24.9375 218.460938 24.589844 218.109375 24.589844 217.589844 C 24.589844 217.242188 25.113281 216.890625 25.460938 216.890625 L 29.996094 217.414062 L 30.167969 215.320312 C 30.34375 214.621094 30.867188 213.925781 31.738281 214.097656 C 32.4375 214.097656 33.136719 214.796875 32.960938 215.667969 L 32.960938 215.84375 C 33.132812 215.84375 33.308594 215.84375 33.484375 215.84375 L 38.71875 216.367188 C 39.9375 216.539062 40.8125 217.589844 40.636719 218.808594 L 40.464844 220.726562 L 45.695312 221.253906 Z M 42.90625 193.515625 C 42.554688 193.167969 41.859375 193.167969 41.335938 193.691406 C 40.984375 194.214844 40.984375 194.914062 41.507812 195.261719 C 42.03125 195.609375 42.730469 195.609375 43.078125 195.085938 C 43.429688 194.734375 43.429688 194.039062 42.90625 193.515625 Z M 42.90625 193.515625 " fill-opacity="1" fill-rule="evenodd"/></g><path fill="#000000" d="M 92.792969 230.148438 C 92.792969 230.320312 92.792969 230.671875 92.621094 231.019531 L 94.714844 231.542969 C 95.410156 231.71875 95.757812 232.414062 95.585938 232.941406 L 94.539062 237.125 C 94.363281 237.824219 93.664062 238.171875 92.96875 237.996094 L 90.875 237.472656 C 90.351562 238.867188 89.652344 240.089844 88.78125 241.3125 L 90.175781 242.707031 C 90.699219 243.230469 90.699219 244.101562 90.175781 244.449219 L 87.210938 247.589844 C 86.6875 247.941406 85.988281 247.941406 85.464844 247.589844 L 83.894531 246.019531 C 82.851562 246.890625 81.453125 247.589844 80.058594 248.289062 L 80.582031 250.382812 C 80.757812 250.90625 80.40625 251.605469 79.710938 251.777344 L 75.699219 252.824219 C 75 253 74.300781 252.648438 74.128906 252.125 L 73.605469 250.03125 C 72.207031 250.207031 70.640625 250.207031 69.242188 250.03125 L 68.546875 252.125 C 68.371094 252.648438 67.847656 252.996094 67.148438 252.824219 L 62.964844 251.777344 C 62.4375 251.605469 61.917969 250.90625 62.089844 250.382812 L 62.617188 248.289062 C 61.394531 247.589844 60 246.890625 58.777344 246.019531 L 57.382812 247.589844 C 56.859375 247.941406 56.160156 247.941406 55.636719 247.589844 L 52.5 244.449219 C 52.148438 244.101562 52.148438 243.230469 52.5 242.707031 L 54.066406 241.3125 C 53.195312 240.089844 52.5 238.867188 51.800781 237.472656 L 49.882812 237.996094 C 49.183594 238.171875 48.488281 237.824219 48.3125 237.125 L 47.265625 232.941406 C 47.09375 232.414062 47.441406 231.71875 48.140625 231.542969 L 50.058594 231.019531 C 50.058594 230.671875 50.058594 230.320312 50.058594 230.148438 L 54.769531 228.054688 C 54.769531 229.625 54.941406 231.367188 55.292969 232.941406 C 57.734375 241.835938 66.804688 247.070312 75.699219 244.800781 C 83.375 242.707031 88.257812 235.554688 87.910156 228.054688 Z M 92.792969 230.148438 " fill-opacity="1" fill-rule="evenodd"/><path fill="#000000" d="M 80.757812 209.390625 C 81.804688 210.085938 83.027344 210.609375 83.898438 211.308594 L 85.46875 209.910156 C 85.992188 209.386719 86.691406 209.386719 87.210938 209.910156 L 90.175781 212.875 C 90.703125 213.402344 90.703125 214.097656 90.175781 214.621094 L 88.78125 216.191406 C 89.652344 217.238281 90.351562 218.632812 90.875 220.027344 L 92.96875 219.503906 C 93.667969 219.332031 94.367188 219.679688 94.539062 220.375 L 95.585938 224.386719 C 95.761719 225.085938 95.414062 225.785156 94.714844 225.957031 L 92.621094 226.480469 L 92.796875 227.179688 L 95.585938 228.921875 L 71.339844 218.109375 L 47.269531 228.921875 L 50.0625 227.179688 L 50.0625 226.480469 L 48.140625 225.957031 C 47.441406 225.78125 47.09375 225.085938 47.269531 224.386719 L 48.316406 220.375 C 48.488281 219.679688 49.1875 219.332031 49.882812 219.503906 L 51.800781 220.027344 C 52.5 218.632812 53.199219 217.410156 54.070312 216.191406 L 52.5 214.621094 C 52.152344 214.097656 52.152344 213.402344 52.5 212.875 L 55.640625 209.910156 C 56.164062 209.386719 56.863281 209.386719 57.382812 209.910156 L 58.78125 211.308594 C 59.824219 210.609375 60.875 210.085938 62.09375 209.390625 L 62.09375 195.78125 L 59.824219 195.78125 L 59.824219 193.167969 L 66.457031 193.167969 C 66.457031 199.792969 66.457031 206.25 66.457031 212.875 C 61.046875 214.621094 57.035156 218.808594 55.464844 223.867188 L 71.339844 214.273438 L 87.214844 223.867188 C 85.644531 218.457031 81.457031 214.445312 76.398438 212.875 C 76.398438 206.25 76.398438 199.792969 76.398438 193.167969 L 83.027344 193.167969 L 83.027344 195.78125 L 80.757812 195.78125 Z M 80.757812 209.390625 " fill-opacity="1" fill-rule="evenodd"/><path fill="#000000" d="M 72.386719 234.160156 L 76.570312 234.160156 L 76.570312 238.34375 L 72.386719 238.34375 Z M 72.386719 228.054688 L 76.570312 228.054688 L 76.570312 232.242188 L 72.386719 232.242188 Z M 66.277344 228.054688 L 70.464844 228.054688 L 70.464844 232.242188 L 66.277344 232.242188 Z M 66.277344 234.160156 L 70.464844 234.160156 L 70.464844 238.34375 L 66.277344 238.34375 Z M 66.277344 234.160156 " fill-opacity="1" fill-rule="evenodd"/><path fill="#000000" d="M 56.160156 227.53125 L 71.339844 221.25 L 86.6875 227.53125 L 71.339844 222.996094 Z M 56.160156 227.53125 " fill-opacity="1" fill-rule="evenodd"/><g clip-path="url(#d92ed8c58f)"><g clip-path="url(#e9e18e2861)"><path fill="#ffbd59" d="M 124.988281 201.070312 L 334.5 201.070312 L 334.5 248.414062 L 124.988281 248.414062 Z M 124.988281 201.070312 " fill-opacity="1" fill-rule="nonzero"/></g></g><g clip-path="url(#684c649695)"><g clip-path="url(#11436bb0aa)"><path stroke-linecap="butt" transform="matrix(0.75, 0, 0, 0.75, 125.009528, 201.072102)" fill="none" stroke-linejoin="miter" d="M 263.148788 -0.002386 L 279.289415 16.138241 L 279.289415 46.96637 L 263.148788 63.106997 L 16.138339 63.106997 L -0.00228772 46.96637 L -0.00228772 16.138241 L 16.138339 -0.002386 Z M 263.148788 -0.002386 " stroke="#000000" stroke-width="8" stroke-opacity="1" stroke-miterlimit="4"/></g></g><g fill="#000000" fill-opacity="1"><g transform="translate(133.960118, 229.242935)"><g><path d="M 6.796875 -9.03125 L 6.796875 -11.546875 L 0.71875 -11.546875 L 0.71875 -9.03125 L 1.984375 -8.703125 L 1.984375 -2.84375 L 0.71875 -2.515625 L 0.71875 0 L 10.90625 0 L 10.90625 -4.40625 L 8.46875 -4.40625 L 8.140625 -2.84375 L 5.390625 -2.84375 L 5.390625 -8.703125 Z M 6.796875 -9.03125 "/></g></g></g><g fill="#000000" fill-opacity="1"><g transform="translate(145.394714, 229.242935)"><g><path d="M 12.34375 -9.03125 L 12.34375 -11.546875 L 7.015625 -11.546875 L 7.015625 -9.03125 L 7.75 -8.703125 L 7.75 -3.21875 L 7.328125 -2.84375 L 5.40625 -2.84375 L 4.96875 -3.21875 L 4.96875 -8.703125 L 5.71875 -9.03125 L 5.71875 -11.546875 L 0.296875 -11.546875 L 0.296875 -9.03125 L 1.546875 -8.703125 L 1.546875 -1.796875 L 3.734375 0 L 8.921875 0 L 11.09375 -1.796875 L 11.09375 -8.703125 Z M 12.34375 -9.03125 "/></g></g></g><g fill="#000000" fill-opacity="1"><g transform="translate(158.297815, 229.242935)"><g><path d="M 6.796875 -9.03125 L 6.796875 -11.546875 L 0.71875 -11.546875 L 0.71875 -9.03125 L 1.984375 -8.703125 L 1.984375 -2.84375 L 0.71875 -2.515625 L 0.71875 0 L 10.90625 0 L 10.90625 -4.40625 L 8.46875 -4.40625 L 8.140625 -2.84375 L 5.390625 -2.84375 L 5.390625 -8.703125 Z M 6.796875 -9.03125 "/></g></g></g><g fill="#000000" fill-opacity="1"><g transform="translate(169.73241, 229.242935)"><g><path d="M 7.03125 -9.03125 L 7.03125 -11.546875 L 1.125 -11.546875 L 1.125 -9.03125 L 2.375 -8.703125 L 2.375 -2.84375 L 1.125 -2.515625 L 1.125 0 L 7.03125 0 L 7.03125 -2.515625 L 5.78125 -2.84375 L 5.78125 -8.703125 Z M 7.03125 -9.03125 "/></g></g></g><g fill="#000000" fill-opacity="1"><g transform="translate(178.163996, 229.242935)"><g/></g></g><g fill="#000000" fill-opacity="1"><g transform="translate(184.747581, 229.242935)"><g><path d="M 10.296875 -9.671875 L 8.046875 -11.546875 L 3.28125 -11.546875 L 0.71875 -9.421875 L 0.71875 -2.21875 L 3.375 0 L 7.953125 0 C 8.335938 -0.320312 8.726562 -0.644531 9.125 -0.96875 C 9.519531 -1.289062 9.910156 -1.617188 10.296875 -1.953125 L 10.296875 -4.046875 L 7.203125 -4.046875 L 6.875 -2.84375 L 4.625 -2.84375 L 4.125 -3.234375 L 4.125 -8.3125 L 4.609375 -8.703125 L 6.875 -8.703125 L 7.203125 -7.484375 L 10.296875 -7.484375 Z M 10.296875 -9.671875 "/></g></g></g><g fill="#000000" fill-opacity="1"><g transform="translate(196.050183, 229.242935)"><g><path d="M 10.4375 -2.0625 L 10.4375 -9.53125 L 8.03125 -11.546875 L 3.140625 -11.546875 L 0.71875 -9.53125 L 0.71875 -2.0625 L 3.21875 0 L 7.9375 0 C 8.351562 -0.34375 8.769531 -0.6875 9.1875 -1.03125 C 9.601562 -1.375 10.019531 -1.71875 10.4375 -2.0625 Z M 6.59375 -8.703125 L 7.046875 -8.34375 L 7.046875 -3.21875 L 6.578125 -2.84375 L 4.59375 -2.84375 L 4.125 -3.21875 L 4.125 -8.34375 L 4.578125 -8.703125 Z M 6.59375 -8.703125 "/></g></g></g><g fill="#000000" fill-opacity="1"><g transform="translate(207.468279, 229.242935)"><g><path d="M 7.859375 -11.546875 L 7.859375 -9.03125 L 9.109375 -8.703125 L 9.109375 -5.375 L 5.671875 -11.546875 L 0.71875 -11.546875 L 0.71875 -9.03125 L 1.984375 -8.703125 L 1.984375 -2.84375 L 0.71875 -2.515625 L 0.71875 0 L 6.125 0 L 6.125 -2.515625 L 4.875 -2.84375 L 4.875 -6.4375 L 8.671875 0 L 12.015625 0 L 12.015625 -8.703125 L 13.265625 -9.03125 L 13.265625 -11.546875 Z M 7.859375 -11.546875 "/></g></g></g><g fill="#000000" fill-opacity="1"><g transform="translate(221.262385, 229.242935)"><g><path d="M 10.203125 -9.671875 L 7.953125 -11.546875 L 2.90625 -11.546875 L 0.65625 -9.671875 L 0.65625 -6.515625 L 2.625 -4.90625 L 6.578125 -4.234375 L 6.890625 -3.953125 L 6.890625 -3.1875 L 6.484375 -2.84375 L 4.078125 -2.84375 L 3.75 -4.046875 L 0.65625 -4.046875 L 0.65625 -1.953125 L 3 0 L 7.96875 0 L 10.328125 -1.953125 L 10.328125 -5.25 L 8.40625 -6.75 L 4.421875 -7.40625 L 4.0625 -7.6875 L 4.0625 -8.359375 L 4.484375 -8.703125 L 6.78125 -8.703125 L 7.109375 -7.484375 L 10.203125 -7.484375 Z M 10.203125 -9.671875 "/></g></g></g><g fill="#000000" fill-opacity="1"><g transform="translate(232.515486, 229.242935)"><g><path d="M 11.765625 -6.78125 L 11.765625 -11.546875 L 0.28125 -11.546875 L 0.28125 -6.78125 L 2.71875 -6.78125 L 3.046875 -8.875 L 4.328125 -8.875 L 4.328125 -2.84375 L 2.921875 -2.515625 L 2.921875 0 L 9.15625 0 L 9.15625 -2.515625 L 7.734375 -2.84375 L 7.734375 -8.875 L 9.015625 -8.875 L 9.34375 -6.78125 Z M 11.765625 -6.78125 "/></g></g></g><g fill="#000000" fill-opacity="1"><g transform="translate(244.791585, 229.242935)"><g><path d="M 5.390625 -8.703125 L 7.734375 -8.703125 L 8.140625 -8.359375 L 8.140625 -7.140625 L 7.734375 -6.8125 L 5.390625 -6.8125 Z M 6.65625 0 L 6.65625 -2.515625 L 5.390625 -2.84375 L 5.390625 -4.5 L 6.25 -4.5 L 8.890625 0 L 12.03125 0 L 12.03125 -2.671875 L 11.15625 -2.84375 L 9.90625 -4.828125 L 11.53125 -6.21875 L 11.53125 -9.671875 L 9.3125 -11.546875 L 0.71875 -11.546875 L 0.71875 -9.03125 L 1.984375 -8.703125 L 1.984375 -2.84375 L 0.71875 -2.515625 L 0.71875 0 Z M 6.65625 0 "/></g></g></g><g fill="#000000" fill-opacity="1"><g transform="translate(257.298684, 229.242935)"><g><path d="M 12.34375 -9.03125 L 12.34375 -11.546875 L 7.015625 -11.546875 L 7.015625 -9.03125 L 7.75 -8.703125 L 7.75 -3.21875 L 7.328125 -2.84375 L 5.40625 -2.84375 L 4.96875 -3.21875 L 4.96875 -8.703125 L 5.71875 -9.03125 L 5.71875 -11.546875 L 0.296875 -11.546875 L 0.296875 -9.03125 L 1.546875 -8.703125 L 1.546875 -1.796875 L 3.734375 0 L 8.921875 0 L 11.09375 -1.796875 L 11.09375 -8.703125 Z M 12.34375 -9.03125 "/></g></g></g><g fill="#000000" fill-opacity="1"><g transform="translate(270.201782, 229.242935)"><g><path d="M 10.296875 -9.671875 L 8.046875 -11.546875 L 3.28125 -11.546875 L 0.71875 -9.421875 L 0.71875 -2.21875 L 3.375 0 L 7.953125 0 C 8.335938 -0.320312 8.726562 -0.644531 9.125 -0.96875 C 9.519531 -1.289062 9.910156 -1.617188 10.296875 -1.953125 L 10.296875 -4.046875 L 7.203125 -4.046875 L 6.875 -2.84375 L 4.625 -2.84375 L 4.125 -3.234375 L 4.125 -8.3125 L 4.609375 -8.703125 L 6.875 -8.703125 L 7.203125 -7.484375 L 10.296875 -7.484375 Z M 10.296875 -9.671875 "/></g></g></g><g fill="#000000" fill-opacity="1"><g transform="translate(281.504378, 229.242935)"><g><path d="M 11.765625 -6.78125 L 11.765625 -11.546875 L 0.28125 -11.546875 L 0.28125 -6.78125 L 2.71875 -6.78125 L 3.046875 -8.875 L 4.328125 -8.875 L 4.328125 -2.84375 L 2.921875 -2.515625 L 2.921875 0 L 9.15625 0 L 9.15625 -2.515625 L 7.734375 -2.84375 L 7.734375 -8.875 L 9.015625 -8.875 L 9.34375 -6.78125 Z M 11.765625 -6.78125 "/></g></g></g><g fill="#000000" fill-opacity="1"><g transform="translate(293.780477, 229.242935)"><g><path d="M 7.03125 -9.03125 L 7.03125 -11.546875 L 1.125 -11.546875 L 1.125 -9.03125 L 2.375 -8.703125 L 2.375 -2.84375 L 1.125 -2.515625 L 1.125 0 L 7.03125 0 L 7.03125 -2.515625 L 5.78125 -2.84375 L 5.78125 -8.703125 Z M 7.03125 -9.03125 "/></g></g></g><g fill="#000000" fill-opacity="1"><g transform="translate(302.21206, 229.242935)"><g><path d="M 10.4375 -2.0625 L 10.4375 -9.53125 L 8.03125 -11.546875 L 3.140625 -11.546875 L 0.71875 -9.53125 L 0.71875 -2.0625 L 3.21875 0 L 7.9375 0 C 8.351562 -0.34375 8.769531 -0.6875 9.1875 -1.03125 C 9.601562 -1.375 10.019531 -1.71875 10.4375 -2.0625 Z M 6.59375 -8.703125 L 7.046875 -8.34375 L 7.046875 -3.21875 L 6.578125 -2.84375 L 4.59375 -2.84375 L 4.125 -3.21875 L 4.125 -8.34375 L 4.578125 -8.703125 Z M 6.59375 -8.703125 "/></g></g></g><g fill="#000000" fill-opacity="1"><g transform="translate(313.63015, 229.242935)"><g><path d="M 7.859375 -11.546875 L 7.859375 -9.03125 L 9.109375 -8.703125 L 9.109375 -5.375 L 5.671875 -11.546875 L 0.71875 -11.546875 L 0.71875 -9.03125 L 1.984375 -8.703125 L 1.984375 -2.84375 L 0.71875 -2.515625 L 0.71875 0 L 6.125 0 L 6.125 -2.515625 L 4.875 -2.84375 L 4.875 -6.4375 L 8.671875 0 L 12.015625 0 L 12.015625 -8.703125 L 13.265625 -9.03125 L 13.265625 -11.546875 Z M 7.859375 -11.546875 "/></g></g></g></svg>